<?xml version="1.0" standalone="no"?>
<!DOCTYPE svg PUBLIC "-//W3C//DTD SVG 20010904//EN"
 "http://www.w3.org/TR/2001/REC-SVG-20010904/DTD/svg10.dtd">
<svg version="1.0" xmlns="http://www.w3.org/2000/svg"
 width="905.000000pt" height="1280.000000pt" viewBox="0 0 905.000000 1280.000000"
 preserveAspectRatio="xMidYMid meet">

<g transform="translate(0.000000,1280.000000) scale(0.100000,-0.100000)"
fill="#000000" stroke="none">
<path d="M0 10341 c0 -2238 1 -2461 16 -2476 12 -12 15 -27 10 -68 -15 -133
-18 -197 -7 -197 18 0 14 -115 -4 -130 -29 -24 -18 -40 30 -40 25 0 45 -4 45
-10 0 -5 -6 -10 -13 -10 -8 0 -22 -9 -32 -20 -18 -20 -17 -20 13 -20 32 0 32
-1 32 -49 0 -30 14 -92 35 -155 19 -58 35 -112 35 -120 0 -8 4 -16 10 -18 5
-1 29 -50 53 -108 54 -129 79 -175 98 -175 8 0 14 -11 14 -27 0 -14 3 -29 7
-33 4 -4 4 -13 1 -21 -7 -18 24 -83 42 -90 20 -8 25 -27 35 -151 5 -63 14
-120 19 -127 6 -7 8 -28 6 -47 -6 -44 13 -169 30 -189 15 -19 29 -52 26 -64
-1 -5 5 -6 13 -3 19 8 31 -9 35 -46 2 -26 94 -50 114 -31 6 7 -25 97 -36 102
-4 2 -7 12 -7 22 0 10 -7 31 -15 46 -8 16 -15 38 -15 49 0 11 -6 29 -13 40 -8
11 -22 47 -32 80 -10 33 -28 81 -41 107 -13 26 -24 63 -24 82 0 19 -5 38 -10
41 -6 3 -10 14 -10 24 0 10 -11 44 -24 77 -29 72 -51 162 -66 274 -14 100 -5
357 17 500 31 203 43 300 53 425 5 72 16 193 25 270 8 77 15 162 15 188 0 54
13 87 35 87 10 0 15 10 14 28 0 15 -3 21 -6 15 -2 -7 -11 -13 -18 -13 -10 0
-13 11 -11 38 2 20 4 59 5 85 1 40 5 50 21 54 23 6 26 19 8 26 -7 3 -3 6 9 6
19 1 24 12 40 84 17 76 21 82 43 82 35 0 55 51 31 79 -19 22 -19 105 1 118 14
9 60 1 68 -11 3 -5 31 -20 63 -35 31 -15 57 -32 57 -37 0 -5 9 -9 20 -9 43 0
17 -33 -42 -56 -22 -8 -24 -44 -4 -44 25 0 26 -16 5 -39 l-21 -22 24 -22 c33
-31 50 -101 30 -121 -14 -14 -14 -17 3 -36 15 -16 15 -20 3 -20 -8 0 -23 9
-33 20 -17 19 -17 21 0 40 16 18 16 20 2 20 -10 0 -17 5 -17 11 0 5 -5 7 -10
4 -6 -3 -10 -24 -10 -46 0 -25 -5 -42 -14 -45 -17 -7 -10 -34 9 -34 12 0 25
-43 26 -85 0 -11 6 -26 13 -35 7 -8 16 -25 19 -38 5 -19 0 -25 -24 -34 -30
-10 -36 -25 -19 -46 6 -6 7 -10 4 -8 -3 3 -19 0 -35 -6 -22 -7 -29 -16 -27
-31 4 -25 -19 -35 -25 -10 -2 10 -3 5 0 -12 2 -16 8 -31 13 -33 13 -5 13 -32
0 -32 -24 0 -6 -20 35 -40 32 -16 47 -29 51 -48 3 -15 9 -46 15 -69 5 -23 9
-58 9 -77 0 -33 2 -36 29 -36 17 0 33 4 36 10 3 5 32 7 68 4 34 -2 67 -4 72
-4 6 1 31 2 56 3 25 1 57 10 72 20 29 19 131 24 142 7 3 -5 16 -10 27 -10 12
0 32 -10 45 -22 12 -12 33 -22 45 -23 15 -1 22 -8 22 -19 -1 -12 7 -16 31 -16
24 0 39 -7 53 -25 l20 -25 7 23 8 22 4 -22 c4 -20 11 -23 54 -23 27 0 49 -4
49 -10 0 -5 9 -10 21 -10 11 0 18 -4 15 -9 -3 -5 5 -11 19 -13 14 -3 25 -2 25
3 0 4 36 8 80 8 73 0 80 -2 80 -19 0 -11 5 -20 10 -20 6 0 10 -9 10 -20 0 -13
7 -20 20 -20 13 0 20 7 20 20 0 14 -7 20 -21 20 -17 0 -20 5 -17 25 3 14 1 28
-3 31 -15 9 -10 24 9 24 28 0 42 -20 35 -51 -3 -18 -1 -29 6 -29 6 0 11 -9 11
-20 0 -19 7 -20 118 -20 l117 0 48 -45 c48 -46 77 -57 77 -30 0 8 9 19 20 25
18 9 20 8 20 -15 0 -16 -6 -25 -15 -25 -19 0 -20 -36 -1 -43 9 -4 19 5 26 24
17 40 45 38 61 -5 8 -21 17 -32 26 -29 18 7 16 33 -4 49 -17 12 -16 13 5 14
13 0 33 -9 45 -21 21 -19 21 -21 5 -33 -22 -16 -23 -26 -3 -26 8 0 15 -4 15
-10 0 -5 -6 -10 -14 -10 -8 0 -18 5 -21 10 -8 12 -45 13 -45 1 0 -5 10 -11 21
-14 17 -5 20 -11 17 -31 -4 -21 -1 -26 16 -26 19 0 21 -5 18 -40 -3 -31 -8
-40 -23 -40 -15 0 -19 -7 -19 -40 0 -36 3 -40 24 -40 22 0 25 -5 29 -42 2 -24
4 -6 5 40 2 65 5 82 17 82 11 0 15 11 15 40 0 33 3 40 20 40 11 0 20 -4 20 -9
0 -5 9 -11 20 -14 14 -3 20 -14 20 -31 0 -16 6 -26 15 -26 11 0 15 -11 15 -40
l0 -40 44 0 c27 0 48 -6 56 -15 21 -25 34 -12 35 33 1 34 8 47 38 76 20 19 37
43 37 54 0 10 9 27 20 37 13 11 18 25 14 37 -4 15 0 18 24 18 17 0 32 6 36 15
3 8 12 15 20 15 26 0 28 21 4 42 l-23 20 23 -6 c15 -5 30 -1 48 13 15 12 33
21 40 21 19 0 48 32 35 39 -6 4 -6 12 -1 21 8 12 10 12 16 -3 3 -9 15 -17 26
-17 17 0 18 3 8 15 -11 13 -8 15 14 15 16 0 26 6 26 15 0 7 8 19 18 24 10 6
12 11 4 11 -7 0 -10 5 -7 11 4 6 9 8 12 5 10 -9 43 14 43 30 0 8 10 19 23 24
21 9 21 9 -4 9 -15 1 -29 8 -33 16 -7 19 3 75 17 93 6 8 5 17 -4 28 -8 10 -9
18 -2 22 6 4 14 39 18 77 4 39 11 75 15 80 4 6 13 28 19 51 6 22 20 51 31 64
11 13 20 27 20 32 0 5 22 31 50 57 28 26 50 51 50 55 0 12 44 45 60 46 8 0 26
6 40 13 14 7 47 11 77 9 l52 -4 4 -41 4 -42 1 43 c2 35 5 42 22 42 17 0 20 -7
20 -40 0 -39 1 -40 34 -40 l34 0 7 -80 7 -80 39 0 c39 0 39 0 39 -40 l0 -40
60 0 c53 0 60 -2 60 -20 0 -17 7 -20 43 -20 63 0 81 -17 78 -74 l-2 -46 35 0
c37 0 86 -37 86 -65 0 -11 12 -15 40 -15 38 0 40 -1 40 -32 0 -30 0 -31 20
-13 11 10 20 24 20 32 0 7 9 13 20 13 13 0 20 7 20 20 0 12 7 20 18 20 9 0 27
3 39 6 14 4 23 2 23 -5 0 -6 -8 -11 -17 -11 -30 -1 -61 -35 -68 -74 l-7 -36
88 -2 c49 -1 70 -3 47 -5 -35 -3 -43 -8 -43 -25 0 -19 4 -20 80 -13 77 7 80 6
80 -14 0 -14 6 -21 20 -21 17 0 20 -7 20 -40 0 -33 3 -40 20 -40 12 0 26 12
35 30 9 17 20 30 25 30 5 0 16 -13 25 -30 15 -30 17 -30 95 -30 l79 0 4 -42 4
-43 1 43 c2 41 3 42 36 42 34 0 35 -2 39 -42 4 -41 4 -40 4 7 0 50 15 95 33
95 5 0 16 -13 25 -30 10 -18 23 -30 36 -30 19 0 20 4 13 95 -5 68 -4 95 5 95
6 0 11 -7 11 -15 0 -8 5 -15 10 -15 6 0 10 -18 10 -40 l0 -40 49 0 48 0 5 48
c3 26 11 60 17 76 11 28 12 28 31 11 11 -10 20 -24 20 -32 0 -21 28 -15 35 7
4 14 19 22 46 26 21 4 39 10 39 15 0 5 9 9 20 9 11 0 20 -4 20 -10 0 -17 27
-11 34 7 4 9 -2 25 -14 38 -11 12 -20 31 -20 43 0 18 6 22 34 22 19 0 55 9 80
20 38 16 46 17 46 5 0 -18 47 -20 122 -4 58 12 81 26 72 41 -9 14 39 -2 48
-16 5 -8 13 -8 28 2 11 6 28 12 37 12 13 1 7 11 -23 38 -35 32 -39 39 -27 51
23 21 63 6 63 -24 0 -23 3 -25 49 -25 40 0 53 4 65 22 15 21 15 23 -4 30 -26
9 -25 24 1 38 17 10 21 8 26 -9 5 -21 23 -29 23 -11 0 6 19 10 41 10 41 0 41
0 36 -32 -3 -18 -3 -27 0 -20 2 6 12 12 21 12 10 0 25 7 35 14 9 7 27 11 40 9
13 -3 29 2 35 10 9 10 25 13 56 10 36 -4 49 -1 67 16 16 14 34 21 56 19 18 -1
38 3 45 10 20 20 66 15 73 -8 3 -11 11 -20 17 -20 5 0 12 9 15 20 3 11 10 20
15 20 5 0 9 12 8 28 -4 49 -2 52 40 52 22 0 40 -4 40 -10 0 -5 -5 -10 -12 -10
-6 0 -9 -2 -6 -5 14 -15 38 10 38 39 0 18 6 38 13 45 10 11 8 12 -11 6 -21 -6
-22 -5 -11 13 7 12 9 27 4 38 -4 11 -7 24 -6 31 1 6 -9 13 -21 15 -32 4 -32
43 0 42 12 0 22 3 22 8 0 4 -4 8 -8 8 -5 0 -6 14 -4 31 3 20 0 34 -9 40 -11 6
-11 11 -1 21 18 18 15 25 -13 32 -27 7 -34 32 -11 38 10 2 11 9 5 27 -8 19
-12 21 -24 11 -13 -10 -19 -8 -40 14 -13 14 -29 26 -34 26 -6 0 -18 12 -28 26
-16 25 -16 27 0 36 15 8 15 11 3 24 -8 8 -23 14 -33 14 -11 0 -24 5 -30 11 -8
8 -17 8 -31 0 -14 -7 -23 -8 -27 -1 -3 5 -3 10 1 10 4 0 -1 9 -11 20 -13 14
-14 20 -5 20 20 0 4 12 -22 16 -76 12 -108 28 -108 54 0 8 -9 10 -27 6 -19 -4
-23 -3 -14 3 20 13 -88 61 -112 49 -20 -10 -54 -2 -75 18 -7 8 -32 14 -56 14
-42 0 -96 18 -96 32 0 4 -20 5 -45 1 -30 -4 -50 -1 -60 7 -10 8 -49 14 -98 16
-45 1 -150 5 -234 8 -137 5 -156 4 -198 -14 -32 -14 -52 -17 -64 -11 -10 6
-23 6 -32 0 -7 -5 -33 -9 -55 -9 -25 0 -47 -6 -54 -15 -7 -8 -19 -15 -26 -15
-8 0 -14 -4 -14 -10 0 -15 -14 -12 -36 8 -10 10 -27 21 -36 25 -28 10 -21 38
12 50 26 10 30 16 30 49 0 27 4 38 15 38 9 0 15 -9 15 -22 1 -21 2 -21 17 6
14 27 14 30 -3 43 -15 11 -17 17 -6 33 6 11 18 29 24 40 10 16 10 24 0 40 -11
18 -10 20 18 20 23 0 30 4 30 20 0 17 7 20 50 20 39 0 53 4 62 20 8 12 24 20
40 20 21 0 29 6 34 26 6 22 11 25 36 22 23 -4 30 0 34 19 9 33 37 29 51 -7 6
-16 16 -30 22 -30 15 0 14 23 -1 38 -9 9 -4 12 24 12 20 0 40 -5 43 -10 5 -8
11 -7 21 1 8 6 27 9 42 7 25 -4 28 -1 24 19 -4 20 0 23 26 23 16 0 43 3 59 6
27 5 31 3 37 -20 3 -14 13 -26 20 -26 8 0 17 -6 19 -12 4 -9 8 -9 14 -3 23 28
83 46 83 25 0 -5 6 -10 14 -10 8 0 16 -5 18 -11 2 -6 27 -14 56 -17 36 -3 52
-9 52 -19 0 -18 32 -13 38 5 2 7 -5 16 -17 19 -30 8 -26 20 10 27 45 9 56 7
39 -5 -11 -7 0 -8 39 -3 38 4 52 3 47 -5 -4 -6 -15 -11 -24 -11 -10 0 -12 -3
-6 -9 13 -12 156 -22 174 -11 9 6 17 5 21 -2 10 -15 29 0 29 23 0 14 7 19 28
20 l27 0 -25 12 c-35 15 -34 15 -20 32 16 19 40 20 40 1 0 -21 33 -29 122 -28
68 0 78 -3 78 -18 0 -28 26 -43 63 -36 18 3 37 3 41 -1 4 -4 13 -8 19 -9 25
-2 57 -17 57 -25 0 -5 8 -9 18 -9 15 -1 15 -2 -3 -16 -19 -14 -19 -15 7 -39
28 -26 48 -32 48 -15 0 6 7 10 16 10 13 0 15 -7 11 -34 -4 -28 -3 -34 9 -29 8
3 20 1 27 -5 6 -5 24 -12 38 -16 15 -3 27 -11 26 -18 0 -7 6 -28 13 -45 11
-24 21 -33 38 -33 13 0 38 -14 55 -32 27 -26 33 -29 35 -14 3 13 7 15 18 5 8
-6 14 -18 14 -26 0 -18 29 -63 55 -85 12 -10 15 -17 8 -18 -17 0 -17 -40 0
-40 7 0 21 -14 31 -31 12 -20 23 -28 33 -25 12 5 14 1 8 -21 -3 -16 -11 -30
-16 -31 -15 -6 11 -32 32 -32 20 0 44 -35 34 -50 -3 -5 -2 -25 3 -43 5 -18 6
-42 1 -53 -5 -15 -1 -28 14 -46 12 -13 27 -33 33 -44 6 -10 20 -23 32 -29 28
-13 28 -25 0 -26 -21 -1 -21 -2 -3 -6 27 -7 36 -23 30 -52 -4 -16 0 -30 15
-43 21 -20 19 -38 -6 -38 -8 0 -14 -4 -14 -10 0 -5 9 -10 19 -10 14 0 23 -11
31 -37 7 -21 21 -52 31 -69 22 -36 26 -120 7 -127 -7 -2 -2 -2 10 0 22 4 23 3
9 -18 -17 -23 -12 -49 8 -49 7 0 14 -18 18 -46 2 -26 9 -49 14 -53 5 -3 9 -17
10 -31 1 -23 15 -96 42 -220 29 -132 42 -287 37 -453 -6 -194 -11 -233 -34
-242 -14 -5 -14 -7 -2 -15 13 -8 12 -14 -5 -46 -11 -21 -19 -44 -17 -52 2 -9
-1 -25 -6 -36 -9 -18 -22 -51 -27 -66 -1 -3 -9 -31 -19 -62 -11 -37 -23 -58
-32 -58 -14 0 -14 -2 -1 -15 12 -11 13 -22 5 -52 -5 -21 -12 -50 -15 -65 -3
-16 -8 -28 -12 -28 -4 0 -13 -28 -20 -62 -8 -35 -17 -68 -22 -73 -4 -6 -13
-32 -19 -58 -7 -26 -16 -47 -21 -47 -5 0 -9 -24 -9 -52 -1 -29 -7 -84 -15
-123 -7 -38 -21 -104 -29 -145 -19 -95 -19 -100 -1 -100 8 0 15 5 15 10 0 6 7
10 15 10 8 0 15 7 15 16 0 8 4 13 9 10 5 -4 11 -1 13 6 3 9 12 9 38 -2 26 -11
35 -11 38 -2 2 7 10 12 18 12 7 0 17 15 22 33 6 22 14 31 25 29 12 -2 17 4 17
21 0 20 -4 23 -24 20 -22 -5 -25 -2 -22 22 2 14 15 38 29 51 15 14 27 31 27
39 0 8 7 15 16 15 16 0 74 55 74 70 0 4 9 10 21 13 17 5 19 9 10 25 -8 15 -6
23 9 37 11 10 20 13 20 8 0 -6 13 -13 30 -16 29 -6 30 -9 30 -57 0 -35 4 -52
14 -56 8 -3 12 -12 9 -21 -5 -12 -2 -13 13 -5 11 6 28 20 38 31 11 12 24 21
30 21 15 1 69 76 86 120 18 48 29 60 53 60 20 0 20 1 2 14 -16 11 -16 14 -3
22 19 11 28 61 34 182 2 51 8 110 13 131 4 21 5 89 1 152 -7 109 -4 139 16
142 4 1 7 32 5 70 -2 46 1 67 9 67 7 0 11 16 9 43 -1 23 1 49 4 57 3 8 8 33
12 55 3 22 15 65 25 95 10 30 21 70 25 89 4 18 18 49 31 68 13 20 24 42 24 49
0 7 11 34 25 60 14 26 25 53 25 59 0 7 7 18 15 25 11 9 14 22 10 40 -4 18 -1
31 10 40 8 7 15 24 15 37 0 16 7 27 18 30 13 3 19 15 20 37 2 44 15 76 45 108
15 16 21 28 16 28 -23 0 -1 25 22 25 15 1 23 6 21 15 -2 8 1 23 7 34 5 12 12
33 15 47 6 27 71 119 85 119 4 0 29 21 56 46 27 25 51 40 53 34 2 -6 -3 -19
-12 -29 -17 -19 -21 -41 -8 -41 5 0 19 9 31 19 12 11 48 37 79 58 31 21 60 43
64 48 4 6 8 807 8 1780 l0 1770 -57 29 c-32 16 -65 33 -73 37 -8 5 -40 22 -70
38 -30 16 -73 44 -94 63 -39 34 -39 34 -22 60 17 26 48 42 76 38 12 -2 11 2
-3 18 -23 26 -18 56 10 60 19 3 20 6 9 33 -10 27 -8 32 12 47 19 15 21 21 12
52 -5 19 -10 48 -10 64 0 24 -2 27 -15 16 -12 -10 -21 -7 -48 16 -53 45 -100
145 -63 131 16 -6 12 16 -7 41 -7 9 -891 12 -4358 12 l-4349 0 0 -2459z m1714
2074 c3 -9 0 -15 -10 -15 -8 0 -13 -4 -10 -9 3 -5 14 -7 24 -5 11 3 21 -4 30
-23 14 -32 16 -63 3 -63 -5 0 -9 -16 -8 -35 1 -19 5 -35 10 -35 4 0 7 -11 7
-24 0 -19 4 -22 24 -19 16 3 25 -1 30 -14 15 -40 31 -62 53 -72 23 -10 23 -12
7 -36 -9 -14 -25 -25 -35 -25 -22 0 -27 -35 -6 -43 7 -3 5 -6 -5 -6 -21 -1
-22 -5 -8 -32 21 -38 -44 -16 -101 36 -17 15 -32 25 -33 23 -2 -2 -6 -24 -9
-49 -5 -35 -2 -49 11 -61 9 -9 23 -24 30 -32 7 -9 19 -13 29 -9 12 5 15 2 10
-10 -10 -26 4 -77 20 -77 27 0 9 -35 -20 -38 -29 -4 -36 -19 -12 -28 9 -4 15
-19 15 -35 0 -16 5 -29 11 -29 11 0 7 -66 -5 -77 -8 -9 15 -34 25 -27 5 3 9
14 9 25 0 24 16 25 29 2 6 -11 5 -26 -1 -42 -6 -17 -6 -27 1 -29 6 -2 11 -14
11 -27 0 -13 7 -28 16 -33 14 -8 12 -10 -10 -16 -47 -12 -20 -63 29 -54 38 8
53 -11 48 -54 -4 -25 -10 -38 -20 -38 -10 0 -14 -7 -10 -20 7 -27 -16 -100
-36 -115 -9 -7 -17 -22 -17 -34 0 -11 -3 -21 -7 -21 -15 0 -33 -52 -24 -68 5
-8 6 -52 3 -98 -5 -99 2 -113 62 -116 l41 -1 -37 -4 c-21 -2 -38 -8 -38 -14 0
-5 -9 -4 -19 3 -15 9 -23 9 -35 -2 -9 -7 -20 -10 -23 -6 -4 4 -1 11 6 15 8 5
10 14 6 21 -5 8 -13 1 -23 -20 -12 -25 -13 -36 -4 -51 7 -10 12 -27 13 -36 0
-11 3 -13 6 -5 2 6 12 12 20 12 9 0 21 8 28 17 9 13 24 17 53 14 27 -1 47 3
61 16 25 21 27 33 4 33 -11 0 -3 11 23 34 21 19 41 30 42 25 6 -14 32 -10 38
6 4 8 14 15 24 15 10 0 20 6 23 13 4 10 7 10 18 0 7 -7 23 -13 36 -13 13 0 23
-5 23 -12 0 -6 12 0 28 14 39 36 59 41 82 18 11 -11 31 -20 45 -20 25 0 25 1
25 80 0 73 2 80 20 80 17 0 20 -7 20 -40 0 -22 5 -40 10 -40 6 0 10 14 10 31
0 26 2 30 15 19 18 -15 35 -5 35 21 0 10 9 28 21 40 15 15 19 28 14 47 -5 22
-4 25 6 15 7 -7 21 -13 30 -13 18 0 29 -43 29 -117 0 -32 -4 -43 -15 -43 -19
0 -19 -14 0 -30 25 -20 34 -2 28 55 l-6 55 42 0 c39 0 41 -1 41 -30 0 -29 2
-30 44 -30 41 0 70 -14 46 -22 -6 -2 5 -21 25 -42 28 -30 35 -47 35 -78 l0
-39 23 21 c21 20 21 22 5 34 -22 16 -23 26 -3 26 23 0 21 80 -2 80 -17 1 -17
2 1 15 22 17 15 46 -11 42 -10 -1 -19 3 -21 8 -1 6 13 11 31 13 24 2 38 -3 52
-18 19 -21 19 -23 2 -35 -21 -15 -22 -25 -2 -25 18 0 20 -37 3 -42 -23 -8 1
-38 29 -38 27 0 28 2 25 40 -4 35 -2 40 17 40 20 0 21 -4 19 -87 -2 -61 -7
-91 -17 -99 -24 -19 7 -28 34 -10 21 14 25 24 25 66 0 43 3 50 20 50 12 0 20
-7 21 -17 0 -11 3 -13 6 -5 2 6 20 12 39 12 34 0 34 0 34 45 0 25 5 45 10 45
6 0 10 18 10 40 0 33 3 40 20 40 17 0 20 -7 20 -40 0 -22 4 -40 9 -40 6 0 12
-17 14 -37 2 -21 3 -12 1 20 l-4 57 40 0 40 0 0 -60 0 -60 39 0 c39 0 40 -1
44 -37 2 -21 2 -3 -1 40 l-4 77 61 0 61 0 0 40 c0 33 3 40 20 40 18 0 20 -7
20 -80 l0 -80 50 0 50 0 0 40 c0 33 3 40 20 40 16 0 20 -7 20 -34 0 -19 3 -41
6 -50 10 -26 34 7 34 48 0 20 5 36 10 36 6 0 10 18 10 40 l0 40 40 0 40 0 0
-40 c0 -38 2 -40 30 -40 28 0 30 2 30 40 0 33 3 40 20 40 17 0 20 -7 20 -40
l0 -40 70 0 c40 0 70 -4 70 -10 0 -5 9 -10 20 -10 11 0 20 5 20 10 0 6 11 10
25 10 23 0 25 -4 25 -40 0 -36 -2 -40 -25 -40 -14 0 -25 5 -25 10 0 6 -9 10
-20 10 -13 0 -20 7 -20 20 0 13 -7 20 -20 20 -13 0 -20 -7 -20 -20 0 -13 7
-20 19 -20 11 0 21 -4 23 -10 3 -11 123 -30 147 -23 12 3 15 14 13 49 -4 39
-2 44 17 44 14 0 21 -6 21 -20 0 -13 7 -20 20 -20 13 0 20 7 20 20 0 13 7 20
20 20 13 0 20 -7 20 -20 0 -13 -7 -20 -20 -20 -13 0 -20 -7 -20 -20 0 -13 7
-20 18 -20 11 0 27 -14 38 -35 10 -19 21 -35 24 -35 3 0 14 16 24 35 18 33 22
35 73 35 39 0 53 4 53 14 0 24 20 29 35 10 8 -11 15 -29 15 -41 0 -20 5 -23
40 -23 35 0 40 -3 40 -23 0 -20 4 -23 35 -19 20 2 74 1 120 -3 l85 -7 0 -34
c0 -32 2 -34 35 -34 34 0 35 -1 35 -40 0 -22 5 -40 10 -40 6 0 10 18 10 39 0
22 5 41 13 44 9 3 8 12 -6 37 -17 31 -17 33 0 45 16 12 20 8 41 -36 21 -44 42
-64 42 -40 0 5 5 22 10 37 10 26 11 26 30 9 13 -12 20 -32 21 -59 0 -37 1 -39
11 -18 16 32 42 27 60 -10 l17 -33 12 33 c10 23 20 32 37 32 13 0 22 -3 20 -7
-2 -5 -10 -20 -17 -36 -8 -15 -11 -30 -7 -35 4 -4 48 -6 97 -5 l89 2 0 -39 c0
-39 1 -40 38 -41 20 -1 55 -2 76 -3 30 -2 40 2 44 16 5 21 7 22 35 6 22 -12
21 -12 -8 -18 -27 -5 -30 -9 -32 -45 l-3 -40 13 35 c18 53 39 49 64 -12 12
-29 22 -45 22 -35 1 9 6 17 11 17 6 0 10 16 10 35 0 24 5 35 15 35 10 0 15
-10 15 -27 0 -16 3 -39 7 -52 6 -23 7 -23 14 -5 4 10 8 36 8 57 1 34 3 37 31
37 28 0 30 -2 30 -40 0 -36 -2 -40 -25 -40 -22 0 -25 -4 -25 -40 0 -22 -4 -40
-10 -40 -5 0 -10 -6 -10 -14 0 -8 -7 -16 -15 -20 -8 -3 -15 -15 -15 -26 0 -21
-14 -27 -25 -10 -11 17 -30 11 -40 -12 -13 -30 -36 -29 -52 2 -9 19 -13 21
-18 9 -4 -10 -16 -14 -40 -11 -26 3 -35 0 -35 -10 0 -17 -47 -42 -54 -29 -3 4
4 18 15 30 l20 21 -28 26 c-23 21 -29 23 -31 10 -2 -9 -10 -16 -18 -16 -8 0
-14 -8 -14 -18 0 -21 -18 -42 -37 -42 -7 0 -13 7 -13 15 0 12 -14 15 -70 15
l-70 0 0 -39 c0 -38 0 -38 -46 -44 -58 -6 -84 1 -84 23 0 19 -45 40 -68 33
-17 -6 -15 -43 2 -43 7 0 16 -9 19 -20 4 -15 0 -20 -14 -20 -10 0 -23 9 -29
20 -14 25 -40 26 -40 1 0 -12 -9 -21 -25 -25 -17 -4 -25 -13 -25 -27 0 -17 -4
-20 -22 -15 -13 3 -29 6 -35 6 -7 0 -13 9 -13 20 0 13 7 20 19 20 10 0 21 9
24 19 10 39 -24 43 -41 6 -13 -27 -42 -34 -42 -10 0 8 -4 15 -10 15 -12 0 -13
-27 -1 -34 5 -3 11 -16 13 -28 3 -19 0 -23 -20 -25 -18 -1 -21 1 -11 8 11 6
11 11 2 20 -10 10 -14 9 -19 -4 -7 -19 -34 -23 -34 -6 0 6 -14 -3 -32 -20 -18
-17 -38 -29 -44 -27 -7 3 -22 -6 -34 -20 -22 -22 -24 -22 -36 -6 -7 9 -14 27
-14 40 0 18 -5 22 -35 22 -21 0 -35 -5 -35 -12 0 -9 -3 -8 -10 2 -8 13 -11 12
-25 -5 -15 -19 -15 -19 -29 -1 -14 18 -16 17 -41 -10 -18 -20 -24 -35 -20 -51
6 -25 -6 -30 -24 -9 -6 7 -22 11 -36 8 -22 -4 -25 -10 -25 -43 0 -30 -4 -39
-17 -39 -23 -1 -53 -23 -53 -40 0 -7 8 -19 18 -26 16 -12 15 -13 -6 -14 -13 0
-33 9 -44 20 -20 18 -23 19 -31 4 -6 -11 -5 -19 2 -23 19 -12 -20 -80 -46 -81
-13 0 -23 -5 -23 -11 0 -6 9 -8 20 -4 16 5 20 2 20 -14 0 -14 -6 -21 -20 -21
-18 0 -20 -7 -20 -55 0 -55 -21 -115 -40 -115 -5 0 -16 12 -24 28 l-15 27 -1
-27 c0 -14 -6 -29 -13 -32 -9 -5 -9 -7 1 -12 6 -3 12 -23 12 -45 0 -21 5 -39
10 -39 6 0 10 18 10 40 0 33 3 40 20 40 17 0 20 -7 20 -40 0 -22 -4 -40 -10
-40 -5 0 -10 -18 -10 -39 0 -33 -4 -40 -22 -44 -13 -2 -4 -5 20 -6 41 -1 42
-2 42 -36 0 -28 -4 -35 -20 -35 -15 0 -20 -7 -20 -26 0 -17 -6 -28 -20 -31
-11 -3 -20 -9 -20 -14 0 -12 37 -11 45 1 3 6 13 10 21 10 10 0 14 -13 14 -50
0 -40 -3 -50 -16 -50 -14 0 -16 -8 -10 -57 17 -148 19 -255 5 -264 -11 -7 -10
-11 6 -24 19 -15 19 -15 1 -29 -10 -8 -15 -19 -12 -24 3 -5 -2 -9 -12 -9 -34
0 -42 -3 -42 -16 0 -7 -9 -18 -20 -25 -11 -7 -20 -17 -20 -22 0 -6 9 -10 20
-10 17 0 20 -7 20 -40 l0 -40 -42 -1 c-24 -1 -60 -2 -80 -2 -37 -1 -38 -2 -38
-39 l0 -38 -75 0 -75 0 -2 43 -1 42 -4 -38 -4 -37 -39 32 c-35 29 -40 38 -40
76 0 35 -3 42 -20 42 -11 0 -20 5 -20 10 0 6 -9 10 -20 10 -14 0 -20 7 -20 24
0 13 5 26 12 28 21 7 1 37 -21 31 -12 -3 -21 -9 -21 -14 0 -5 -4 -9 -8 -9 -12
0 -8 72 6 97 7 12 12 28 12 37 0 8 6 17 13 20 6 3 0 3 -15 0 -26 -6 -27 -4
-30 43 -2 26 1 56 7 66 14 25 -6 51 -44 55 -28 3 -31 6 -31 37 0 47 -16 85
-37 85 -10 1 -34 9 -53 20 l-35 19 48 1 47 0 0 40 c0 36 -2 40 -25 40 -22 0
-25 4 -25 40 0 29 -4 40 -15 40 -13 0 -13 3 -3 20 17 27 0 54 -36 58 -20 3
-26 9 -26 28 0 27 28 44 40 24 9 -15 30 -5 30 16 0 9 -11 14 -34 14 -33 0 -35
2 -39 38 -3 32 -4 31 -3 -8 0 -35 -4 -46 -17 -48 -9 -2 -17 1 -17 7 0 6 -8 11
-17 11 -17 1 -17 1 0 14 9 7 17 25 17 40 0 14 6 26 13 26 6 1 2 9 -10 19 -13
11 -23 24 -23 30 0 6 -9 16 -20 23 -11 7 -20 18 -20 24 0 7 -6 14 -14 17 -21
8 -56 -3 -56 -18 0 -19 -49 -25 -66 -8 -8 8 -14 24 -14 36 0 13 -9 30 -20 40
-22 18 -90 24 -90 7 0 -5 -7 -10 -17 -10 -14 0 -14 2 2 20 20 22 20 22 -12 39
-20 10 -23 9 -29 -16 -4 -16 -9 -31 -11 -35 -5 -10 -82 40 -109 71 -17 20 -33
25 -82 29 -63 4 -70 0 -63 -40 1 -11 -13 -10 -44 2 -20 7 -26 16 -22 29 8 33
-5 39 -58 25 -78 -20 -111 -18 -133 11 -11 14 -24 25 -29 25 -6 0 -15 10 -21
23 l-11 22 -7 -22 c-8 -29 -63 -33 -65 -5 -1 16 -2 16 -6 0 -2 -10 -10 -18
-16 -18 -8 0 -7 -4 1 -12 14 -14 16 -68 3 -68 -5 0 -11 12 -13 28 -2 21 -9 28
-30 30 -16 2 -28 8 -28 14 0 6 -9 3 -20 -7 -19 -17 -21 -17 -39 -1 -13 12 -24
14 -42 8 -13 -5 -41 -12 -61 -16 -30 -5 -38 -4 -38 8 0 8 5 16 12 18 6 2 -4
19 -24 39 -49 48 -69 58 -89 46 -21 -13 -49 -2 -49 19 0 24 -29 54 -52 54 -15
0 -18 8 -18 44 0 25 5 48 10 51 5 3 10 15 10 25 0 10 5 20 11 22 8 3 8 16 -1
48 -9 32 -9 45 -1 48 7 2 6 11 -4 25 -13 19 -13 23 2 39 10 11 12 18 5 18 -7
0 -12 5 -12 10 0 6 9 10 20 10 12 0 24 10 29 24 5 13 17 26 25 29 24 10 21 79
-4 102 -17 15 -23 16 -33 6 -9 -11 -9 -14 0 -18 20 -7 -13 -62 -44 -74 -24 -9
-25 -11 -9 -28 17 -19 22 -36 7 -27 -11 7 -82 -21 -79 -32 4 -18 -23 -61 -41
-67 -22 -7 -40 -53 -25 -64 15 -10 46 -62 41 -68 -10 -9 -47 22 -47 40 0 26
-30 34 -46 12 -7 -10 -15 -23 -17 -29 -2 -5 -16 -11 -32 -11 -39 -2 -43 -22
-8 -37 37 -17 63 -39 63 -55 0 -7 9 -13 20 -13 15 0 20 -7 20 -25 0 -14 5 -25
10 -25 6 0 10 -9 10 -20 0 -11 -4 -20 -10 -20 -5 0 -10 -7 -10 -16 0 -14 -7
-15 -45 -10 -43 7 -63 -5 -30 -18 17 -6 21 -46 5 -46 -5 0 -10 -9 -10 -19 0
-10 -6 -21 -14 -24 -8 -3 -16 -16 -18 -29 -2 -13 -10 -23 -18 -23 -10 0 -14 8
-12 23 2 12 -2 22 -7 22 -6 0 -11 -4 -11 -9 0 -5 -9 -11 -21 -14 -13 -4 -18
-10 -13 -18 4 -8 3 -10 -5 -5 -11 7 -41 -15 -41 -32 0 -5 -18 -17 -39 -27 -22
-10 -42 -23 -45 -31 -3 -7 -22 -16 -43 -20 -22 -4 -50 -19 -67 -35 -15 -16
-32 -29 -37 -29 -5 0 -9 -6 -9 -13 0 -7 -17 -21 -38 -32 -20 -11 -55 -37 -77
-58 -34 -32 -40 -35 -43 -20 -3 19 93 205 109 211 5 2 9 14 9 26 0 12 11 32
24 43 13 12 27 35 31 51 3 17 13 33 21 36 8 3 14 14 14 25 0 11 6 24 14 28 7
4 21 31 30 60 10 29 28 62 41 75 14 13 25 28 25 33 1 11 75 65 88 65 5 0 19
11 32 25 20 21 22 28 12 50 -6 14 -9 32 -6 40 4 10 0 15 -10 15 -9 0 -16 6
-16 14 0 7 -6 19 -14 26 -8 6 -12 18 -9 26 3 9 -2 14 -14 14 -37 0 -51 30 -47
100 2 36 3 124 3 195 -2 175 -2 164 11 215 6 25 13 61 15 80 3 19 5 40 6 45 1
6 -7 44 -16 85 -12 55 -17 126 -18 265 -1 189 -1 190 32 290 18 55 43 120 56
145 12 25 26 58 30 75 9 41 24 57 46 50 23 -8 36 19 20 39 -9 11 -6 18 14 34
14 11 25 24 25 30 0 5 7 13 16 16 14 5 14 9 3 22 -11 13 -10 17 4 25 9 6 17
17 17 25 0 8 15 22 34 31 24 11 36 25 40 44 3 16 10 29 16 29 7 0 7 -6 0 -21
-14 -25 6 -57 24 -39 9 9 11 22 15 93 1 19 6 27 19 27 10 0 25 11 32 25 15 28
45 33 54 10z m61 -165 c3 -5 1 -10 -4 -10 -6 0 -11 5 -11 10 0 6 2 10 4 10 3
0 8 -4 11 -10z m768 -49 c24 -52 23 -63 -6 -50 -13 6 -29 25 -37 42 -7 18 -15
35 -18 40 -2 4 7 7 20 7 17 0 28 -11 41 -39z m817 -1 c0 -5 -7 -10 -15 -10 -8
0 -15 5 -15 10 0 6 7 10 15 10 8 0 15 -4 15 -10z m-1280 -80 c0 -5 -4 -10 -10
-10 -5 0 -10 5 -10 10 0 6 5 10 10 10 6 0 10 -4 10 -10z m900 -11 c0 -5 -4 -9
-10 -9 -5 0 -10 7 -10 16 0 8 5 12 10 9 6 -3 10 -10 10 -16z m515 11 c3 -5 -1
-10 -9 -10 -8 0 -18 5 -21 10 -3 6 1 10 9 10 8 0 18 -4 21 -10z m-1495 -10 c0
-5 -4 -10 -10 -10 -5 0 -10 5 -10 10 0 6 5 10 10 10 6 0 10 -4 10 -10z m788
-10 c11 -18 10 -20 -13 -20 -24 0 -34 18 -18 33 10 11 17 8 31 -13z m-818 -10
c0 -5 -11 -10 -25 -10 -34 0 -32 -18 3 -22 21 -2 28 -9 30 -30 4 -36 -10 -35
-48 2 -37 36 -38 46 -2 58 36 14 42 14 42 2z m1070 -15 c0 -22 4 -25 40 -25
33 0 40 -3 40 -20 0 -16 -7 -20 -35 -20 -35 0 -75 -28 -75 -51 0 -12 29 -38
43 -39 4 0 7 18 7 40 0 33 3 40 20 40 17 0 20 -7 20 -40 0 -22 5 -40 10 -40 6
0 10 9 10 20 0 17 7 20 40 20 33 0 40 -3 40 -20 0 -15 7 -20 25 -20 23 0 25
-4 25 -40 0 -34 3 -40 21 -40 21 0 21 3 16 59 -6 50 -4 61 13 76 19 17 20 17
30 -9 5 -15 10 -32 10 -37 0 -12 12 -11 60 3 48 15 54 43 12 51 -26 5 -27 8
-24 51 5 57 22 61 22 6 0 -38 2 -40 29 -40 16 0 32 6 35 13 5 10 7 10 12 0 3
-7 12 -13 20 -13 8 0 14 -4 14 -10 0 -5 18 -10 40 -10 33 0 40 -3 40 -20 0
-17 -7 -20 -40 -20 -22 0 -40 -4 -40 -10 0 -5 18 -10 40 -10 l40 0 0 -40 c0
-29 -4 -40 -15 -40 -8 0 -15 -7 -15 -15 0 -8 7 -15 15 -15 8 0 15 7 15 15 0 8
7 15 15 15 11 0 15 11 15 40 0 29 4 40 15 40 11 0 15 11 15 42 0 23 3 39 6 35
11 -10 10 -477 -1 -474 -5 2 -11 20 -13 40 -4 48 -20 48 -24 0 l-3 -38 -132
-3 -133 -3 0 -39 0 -40 -80 0 -80 0 0 -50 c0 -41 -3 -50 -17 -50 -15 0 -16 2
-3 10 11 7 5 10 -22 10 -40 0 -51 -14 -18 -23 14 -3 20 -14 20 -31 0 -19 5
-26 20 -26 17 0 20 -7 20 -40 0 -33 -3 -40 -20 -40 -17 0 -20 7 -20 40 l0 40
-55 0 -55 0 0 34 c0 19 6 37 13 39 7 3 5 6 -5 6 -14 1 -18 -7 -18 -39 0 -33
-3 -40 -20 -40 -17 0 -20 7 -20 40 0 30 -4 40 -16 40 -13 0 -15 9 -12 45 2 25
0 45 -4 45 -13 0 -9 58 5 63 7 3 5 6 -6 6 -17 1 -17 -7 -11 -100 l7 -101 -29
4 c-28 3 -29 5 -32 61 -3 64 -22 79 -22 17 l0 -40 -40 0 c-33 0 -40 4 -40 19
0 10 7 21 15 25 29 11 17 36 -18 36 -21 0 -36 7 -45 20 -7 11 -17 20 -22 20
-6 0 -10 -9 -10 -20 0 -13 7 -20 20 -20 17 0 20 -7 20 -40 0 -30 -4 -40 -16
-40 -9 0 -36 -20 -60 -45 l-44 -46 0 -99 c0 -87 -2 -99 -16 -93 -11 4 -14 14
-10 37 3 17 8 61 12 99 l7 67 -32 0 c-29 0 -31 -3 -31 -34 0 -43 -9 -68 -22
-60 -6 4 -6 9 2 14 9 6 8 14 -5 33 -17 26 -13 67 6 67 5 0 9 9 9 20 0 11 -4
20 -10 20 -5 0 -10 5 -10 10 0 6 23 10 50 10 l50 0 0 40 0 40 -40 0 c-34 0
-40 -3 -40 -20 0 -18 -3 -19 -20 -10 -11 6 -20 15 -20 20 0 6 9 10 20 10 17 0
20 7 20 40 0 39 -1 40 -35 40 -34 0 -35 1 -35 40 0 36 -2 40 -25 40 -22 0 -25
4 -25 40 0 32 -4 40 -17 40 -23 -1 -53 -23 -53 -40 0 -7 8 -19 18 -26 16 -12
15 -13 -6 -14 -34 0 -92 57 -92 91 0 22 -6 30 -25 35 -21 5 -25 12 -25 45 0
44 16 52 26 14 4 -18 13 -25 30 -25 22 0 24 -4 24 -55 0 -41 3 -53 13 -49 10
4 13 19 9 54 l-5 50 31 0 c20 0 32 -6 36 -17 3 -10 4 15 2 55 l-3 72 38 0 c28
0 39 -4 39 -15 0 -8 5 -15 10 -15 6 0 10 18 10 40 0 22 5 40 10 40 6 0 10 18
10 40 0 33 3 40 20 40 17 0 20 7 20 40 l0 40 40 0 40 0 0 -40 c0 -35 3 -40 23
-40 16 0 28 10 40 33 l16 32 0 -32 c1 -32 3 -33 41 -33 33 0 40 -3 40 -20 0
-17 7 -20 40 -20 33 0 40 -3 40 -20 0 -18 7 -20 55 -20 59 0 65 5 38 26 -17
13 -17 15 0 28 11 9 17 27 17 58 0 44 13 68 37 68 7 0 13 -11 13 -25z m-1000
11 c0 -2 -7 -6 -15 -10 -8 -3 -15 -1 -15 4 0 6 7 10 15 10 8 0 15 -2 15 -4z
m440 -21 c0 -9 -6 -12 -15 -9 -8 4 -15 10 -15 15 0 5 7 9 15 9 8 0 15 -7 15
-15z m465 -35 c10 -11 16 -23 13 -26 -9 -8 -48 19 -48 33 0 19 14 16 35 -7z
m-578 -36 c-3 -3 -12 -4 -19 -1 -8 3 -5 6 6 6 11 1 17 -2 13 -5z m33 -36 c0
-16 -3 -19 -11 -11 -6 6 -8 16 -5 22 11 17 16 13 16 -11z m-160 -18 c0 -13 -7
-20 -20 -20 -25 0 -26 16 -2 29 23 14 22 14 22 -9z m138 -58 c3 -37 1 -42 -17
-42 -18 0 -21 6 -21 46 0 38 3 45 18 42 12 -2 18 -15 20 -46z m-219 -14 c0
-29 -3 -47 -6 -40 -2 6 -11 12 -19 12 -10 0 -14 12 -14 40 0 33 3 40 20 40 18
0 20 -6 19 -52z m161 42 c0 -5 -9 -14 -20 -20 -17 -9 -20 -8 -20 10 0 13 7 20
20 20 11 0 20 -4 20 -10z m143 3 c-13 -2 -33 -2 -45 0 -13 2 -3 4 22 4 25 0
35 -2 23 -4z m-683 -77 c0 -3 -4 -8 -10 -11 -5 -3 -10 -1 -10 4 0 6 5 11 10
11 6 0 10 -2 10 -4z m540 -21 c0 -28 -15 -34 -24 -9 -10 25 -7 34 9 34 9 0 15
-9 15 -25z m1520 -115 c0 -11 -7 -20 -15 -20 -11 0 -15 -11 -15 -40 0 -36 -2
-40 -25 -40 -24 0 -25 3 -25 60 l0 60 40 0 c33 0 40 -3 40 -20z m-2840 -84 c0
-8 4 -16 9 -18 6 -2 6 -21 0 -48 -6 -25 -10 -58 -9 -74 0 -16 -4 -32 -10 -36
-5 -3 -12 -32 -14 -63 -3 -31 -12 -67 -20 -79 -20 -28 -21 -135 -2 -161 9 -11
12 -33 8 -63 -3 -27 2 -70 13 -110 10 -36 15 -67 12 -70 -3 -4 -1 -18 5 -33
10 -28 14 -184 4 -200 -4 -5 -15 -9 -26 -8 -14 1 -18 6 -14 19 3 12 0 18 -10
18 -8 0 -25 14 -39 31 -20 26 -22 35 -13 55 6 13 18 25 26 27 8 3 -1 3 -20 1
-23 -2 -30 0 -21 5 9 6 11 18 7 34 -3 14 -2 37 4 51 6 16 6 27 0 31 -5 3 -9
16 -9 28 1 32 -7 89 -17 112 -7 17 -9 16 -17 -10 -21 -72 -24 -105 -11 -116
25 -20 3 -30 -27 -12 -24 14 -29 24 -29 55 0 20 5 40 11 44 8 5 8 8 0 13 -8 6
-8 18 2 47 8 21 12 44 10 51 -2 6 7 22 20 35 16 16 26 41 31 76 4 29 10 52 14
52 8 0 32 79 32 106 0 9 9 28 20 43 14 20 18 38 14 63 -4 22 -1 40 7 49 8 8
20 26 28 42 15 29 31 36 31 13z m1430 -106 c-19 -13 -30 -13 -30 0 0 6 10 10
23 10 18 0 19 -2 7 -10z m50 -77 c0 -36 -1 -37 -17 -19 -13 13 -15 20 -5 23 6
3 12 11 12 19 0 8 2 14 5 14 3 0 5 -17 5 -37z m1020 -33 c0 -33 -3 -40 -20
-40 -17 0 -20 7 -20 40 0 33 3 40 20 40 17 0 20 -7 20 -40z m-1014 -54 c8 -8
14 -20 14 -26 0 -12 -24 -40 -34 -40 -3 0 -6 18 -6 40 0 43 4 47 26 26z m794
-26 c0 -33 -3 -40 -20 -40 -16 0 -20 7 -20 33 0 36 6 47 27 47 9 0 13 -13 13
-40z m160 0 c0 -33 -3 -40 -20 -40 -17 0 -20 7 -20 40 0 33 3 40 20 40 17 0
20 -7 20 -40z m-540 -35 c0 -13 6 -30 13 -37 7 -7 16 -21 20 -30 5 -14 1 -18
-17 -18 -26 0 -36 21 -36 83 0 23 4 36 10 32 6 -3 10 -17 10 -30z m-406 -70
c3 -8 1 -15 -4 -15 -6 0 -10 7 -10 15 0 8 2 15 4 15 2 0 6 -7 10 -15z m196
-135 c0 -29 -4 -40 -15 -40 -11 0 -15 11 -15 40 0 29 4 40 15 40 11 0 15 -11
15 -40z m670 30 c0 -5 -2 -10 -4 -10 -3 0 -8 5 -11 10 -3 6 -1 10 4 10 6 0 11
-4 11 -10z m80 -30 c0 -33 -3 -40 -20 -40 -17 0 -20 7 -20 40 0 33 3 40 20 40
17 0 20 -7 20 -40z m182 -7 c3 -32 0 -53 -9 -63 -11 -12 -13 -5 -13 48 0 73
16 83 22 15z m-1222 11 c0 -8 -5 -12 -10 -9 -6 4 -8 11 -5 16 9 14 15 11 15
-7z m640 -64 c0 -47 -3 -60 -15 -60 -11 0 -15 12 -15 48 0 40 12 72 27 72 2 0
3 -27 3 -60z m-1185 30 c3 -5 1 -10 -4 -10 -6 0 -11 5 -11 10 0 6 2 10 4 10 3
0 8 -4 11 -10z m1440 0 c3 -5 1 -10 -4 -10 -6 0 -11 5 -11 10 0 6 2 10 4 10 3
0 8 -4 11 -10z m-195 -14 c0 -3 -4 -8 -10 -11 -5 -3 -10 -1 -10 4 0 6 5 11 10
11 6 0 10 -2 10 -4z m-780 -21 c0 -8 -9 -15 -19 -15 -11 0 -23 -4 -26 -10 -3
-5 -13 -10 -21 -10 -8 0 -14 5 -14 10 0 6 9 10 19 10 10 0 21 7 25 15 3 8 12
15 21 15 8 0 15 -7 15 -15z m760 -45 c0 -5 -5 -10 -11 -10 -5 0 -7 5 -4 10 3
6 8 10 11 10 2 0 4 -4 4 -10z m-920 -31 c0 -24 -23 -21 -28 4 -2 10 3 17 12
17 10 0 16 -9 16 -21z m2598 -71 c-7 -19 -38 -22 -38 -4 0 10 9 16 21 16 12 0
19 -5 17 -12z m202 2 c0 -5 -9 -14 -20 -20 -17 -9 -20 -8 -20 10 0 13 7 20 20
20 11 0 20 -4 20 -10z m60 6 c0 -3 -4 -8 -10 -11 -5 -3 -10 -1 -10 4 0 6 5 11
10 11 6 0 10 -2 10 -4z m-220 -46 c0 -13 -7 -20 -20 -20 -13 0 -20 7 -20 20 0
13 7 20 20 20 13 0 20 -7 20 -20z m320 10 c0 -5 -18 -10 -40 -10 -22 0 -40 5
-40 10 0 6 18 10 40 10 22 0 40 -4 40 -10z m-240 -32 c0 -5 -11 -8 -25 -8 -23
0 -34 18 -19 33 7 7 44 -14 44 -25z m-3860 -212 c0 -8 -7 -19 -16 -27 -16 -13
-15 -56 1 -121 6 -23 3 -29 -18 -37 -14 -6 -28 -20 -30 -33 -3 -13 -4 -4 -3
19 2 23 -2 47 -7 52 -7 7 -5 16 4 27 11 14 11 18 1 22 -22 7 -42 33 -35 45 4
7 8 19 8 27 0 8 7 14 16 14 10 -1 23 9 29 22 10 19 17 21 31 13 11 -5 19 -16
19 -23z m736 -34 c-12 -11 -17 7 -9 34 l8 29 3 -28 c2 -16 1 -31 -2 -35z
m-876 38 c0 -5 -6 -10 -14 -10 -8 0 -18 5 -21 10 -3 6 3 10 14 10 12 0 21 -4
21 -10z m4820 0 c0 -5 -4 -10 -10 -10 -5 0 -10 5 -10 10 0 6 5 10 10 10 6 0
10 -4 10 -10z m-4807 -45 c-7 -21 -13 -19 -13 6 0 11 4 18 10 14 5 -3 7 -12 3
-20z m4864 9 c-3 -3 -12 -4 -19 -1 -8 3 -5 6 6 6 11 1 17 -2 13 -5z m113 -204
c0 -5 -4 -10 -10 -10 -5 0 -10 5 -10 10 0 6 5 10 10 10 6 0 10 -4 10 -10z
m-4907 -62 c10 -17 14 -35 10 -39 -13 -13 -50 17 -55 46 -7 37 23 33 45 -7z
m658 -17 c23 -29 24 -41 4 -41 -9 0 -18 12 -21 30 -4 17 -13 30 -20 30 -8 0
-14 4 -14 9 0 14 24 20 29 7 2 -6 12 -22 22 -35z m4186 33 c-3 -3 -12 -4 -19
-1 -8 3 -5 6 6 6 11 1 17 -2 13 -5z m-499 -92 c2 -7 -3 -12 -12 -12 -9 0 -16
7 -16 16 0 17 22 14 28 -4z m-3728 -152 c0 -5 -4 -10 -9 -10 -6 0 -13 5 -16
10 -3 6 1 10 9 10 9 0 16 -4 16 -10z m102 -41 c3 -29 0 -35 -17 -36 -11 -1
-14 1 -7 4 7 3 12 23 13 46 1 47 6 41 11 -14z m158 16 c0 -8 -4 -15 -10 -15
-5 0 -10 7 -10 15 0 8 5 15 10 15 6 0 10 -7 10 -15z m-347 -50 c1 -5 -6 -11
-15 -13 -11 -2 -18 3 -18 13 0 17 30 18 33 0z m27 -34 c0 -23 -14 -41 -31 -41
-23 0 -24 5 -1 29 19 21 32 26 32 12z m-580 -39 c0 -39 -17 -92 -33 -106 -8
-6 -20 -26 -26 -45 -13 -41 -71 -134 -79 -127 -10 10 38 162 68 218 6 10 10
25 10 35 0 20 40 64 51 57 5 -3 9 -17 9 -32z m-242 3 c-2 -15 -6 -21 -11 -16
-6 6 -7 17 -4 25 9 24 17 19 15 -9z m3455 -162 c-7 -2 -19 -2 -25 0 -7 3 -2 5
12 5 14 0 19 -2 13 -5z m2167 -203 c0 -5 -4 -10 -10 -10 -5 0 -10 5 -10 10 0
6 5 10 10 10 6 0 10 -4 10 -10z m-2210 -30 c0 -5 -7 -10 -15 -10 -8 0 -15 5
-15 10 0 6 7 10 15 10 8 0 15 -4 15 -10z m2770 0 c0 -5 -7 -10 -15 -10 -8 0
-15 5 -15 10 0 6 7 10 15 10 8 0 15 -4 15 -10z m-1455 -70 c3 -5 2 -10 -4 -10
-5 0 -13 5 -16 10 -3 6 -2 10 4 10 5 0 13 -4 16 -10z m1615 -50 c0 -13 -48
-36 -56 -27 -4 3 -4 13 -1 22 7 17 57 21 57 5z m-1890 -85 c0 -8 -7 -15 -15
-15 -8 0 -15 7 -15 15 0 8 7 15 15 15 8 0 15 -7 15 -15z m50 -35 c0 -5 -7 -10
-15 -10 -8 0 -15 5 -15 10 0 6 7 10 15 10 8 0 15 -4 15 -10z m2055 -80 c3 -5
-1 -10 -9 -10 -9 0 -16 5 -16 10 0 6 4 10 9 10 6 0 13 -4 16 -10z m-5388 -90
c31 0 53 -4 53 -11 0 -5 5 -7 12 -3 9 6 9 9 0 12 -16 5 -5 22 14 22 24 0 41
-22 36 -47 -2 -12 -1 -30 2 -39 5 -14 10 -12 32 12 23 27 26 28 38 12 17 -22
34 -23 58 -1 27 24 33 8 7 -18 l-22 -22 31 6 c27 5 32 3 32 -12 0 -11 6 -21
13 -24 6 -2 8 -8 4 -13 -4 -5 -12 -2 -16 5 -13 21 -78 -6 -86 -36 -7 -31 2
-45 24 -38 24 7 49 -21 33 -37 -8 -8 -15 -8 -26 1 -13 11 -18 10 -31 -2 -8 -9
-12 -22 -9 -30 12 -33 -147 -86 -246 -81 -53 2 -220 -34 -220 -48 0 -6 -7 -4
-17 3 -9 8 -34 14 -56 14 -40 0 -41 1 -51 45 -6 25 -18 55 -26 66 -18 24 -74
49 -90 39 -8 -5 -11 0 -8 16 2 16 15 27 46 38 23 8 42 21 42 28 0 6 11 23 25
37 22 22 30 24 80 19 33 -3 55 -2 55 4 0 5 -15 8 -32 6 l-33 -4 25 20 25 21
-25 20 -25 20 27 0 c15 0 32 -8 37 -17 10 -17 12 -17 25 0 9 12 27 17 59 17
31 0 47 5 51 15 8 21 26 19 26 -2 1 -12 6 -8 17 12 l17 30 10 -27 c9 -26 14
-28 63 -28z m-339 -35 c1 -1 0 -10 -4 -19 -5 -12 -19 -16 -60 -16 -46 0 -54 3
-54 18 0 10 2 21 5 24 5 5 106 -1 113 -7z m5873 -18 c-8 -8 -11 -7 -11 4 0 9
3 19 7 23 4 4 9 2 11 -4 3 -7 -1 -17 -7 -23z m-6031 13 c0 -5 -4 -10 -10 -10
-5 0 -10 5 -10 10 0 6 5 10 10 10 6 0 10 -4 10 -10z m3750 -50 c0 -5 -4 -10
-10 -10 -5 0 -10 5 -10 10 0 6 5 10 10 10 6 0 10 -4 10 -10z m-40 -20 c0 -5
-4 -10 -10 -10 -5 0 -10 5 -10 10 0 6 5 10 10 10 6 0 10 -4 10 -10z m-3660
-15 c0 -8 -4 -15 -9 -15 -13 0 -22 16 -14 24 11 11 23 6 23 -9z m4418 -6 c2
-5 12 -9 23 -9 11 0 37 -6 59 -12 34 -11 40 -17 45 -50 6 -31 11 -38 30 -38
14 0 25 7 28 20 6 23 29 26 49 6 8 -7 25 -17 38 -21 14 -4 30 -15 37 -24 10
-14 13 -14 30 2 11 9 30 17 43 17 22 0 23 -1 5 -20 -15 -17 -16 -24 -5 -49 7
-18 17 -28 25 -25 16 7 29 -12 15 -21 -19 -12 -82 5 -76 20 2 7 -2 16 -10 19
-8 3 -14 -1 -14 -9 0 -24 -38 -17 -56 9 -8 14 -21 23 -29 20 -7 -3 -25 7 -39
23 -20 21 -28 25 -38 15 -7 -7 -22 -12 -35 -12 -19 0 -22 4 -17 28 4 19 1 32
-10 41 -14 12 -16 10 -16 -13 0 -49 -15 -64 -62 -62 -33 2 -43 7 -42 19 1 10
-4 17 -11 17 -7 0 -15 6 -18 13 -5 14 -94 40 -108 31 -6 -3 -7 -19 -4 -35 8
-34 -4 -37 -30 -9 -10 11 -24 20 -32 20 -7 0 -13 3 -13 8 0 7 -29 21 -72 35
-10 4 -15 12 -12 20 10 27 115 50 129 27 3 -5 18 -10 33 -9 15 0 21 3 15 6 -7
2 -13 8 -13 13 0 11 154 0 158 -11z m-361 -1 c33 -12 44 -28 20 -28 -23 0 -49
-37 -42 -58 3 -11 1 -23 -5 -27 -6 -3 -10 3 -10 16 0 13 -10 33 -22 46 l-21
23 21 0 c12 0 22 5 22 10 0 6 -5 10 -11 10 -5 0 -7 5 -4 10 8 13 12 13 52 -2z
m-4597 -77 c0 -5 -9 -11 -21 -14 -16 -4 -18 -3 -8 9 13 16 29 19 29 5z m480
-47 c0 -8 -4 -12 -10 -9 -5 3 -10 10 -10 16 0 5 5 9 10 9 6 0 10 -7 10 -16z
m832 -7 c-12 -13 -28 -24 -35 -24 -6 -1 -27 -4 -44 -8 -26 -6 -33 -4 -33 8 0
8 10 18 23 22 43 15 72 23 91 24 18 1 18 0 -2 -22z m-912 -47 c0 -6 -6 -10
-14 -10 -8 0 -16 -6 -19 -12 -8 -23 -15 -4 -10 24 4 23 8 26 24 17 11 -5 19
-14 19 -19z m5000 27 c0 -2 -9 -12 -20 -22 -19 -18 -20 -17 -20 3 0 15 6 22
20 22 11 0 20 -2 20 -3z m-5164 -34 c-10 -10 -19 5 -10 18 6 11 8 11 12 0 2
-7 1 -15 -2 -18z m240 0 c-10 -10 -19 5 -10 18 6 11 8 11 12 0 2 -7 1 -15 -2
-18z m-397 -20 c0 -25 -1 -25 -8 -8 -5 11 -7 23 -4 28 8 14 13 7 12 -20z
m-321 -19 c-10 -10 -28 6 -28 24 0 15 1 15 17 -1 9 -9 14 -19 11 -23z m2869
-26 c-2 -13 -4 -3 -4 22 0 25 2 35 4 23 2 -13 2 -33 0 -45z m2866 50 c15 -7
29 -20 32 -29 3 -9 14 -19 25 -22 14 -4 17 -11 13 -27 -5 -20 -3 -22 15 -18
17 5 22 2 22 -13 0 -13 7 -19 23 -19 22 -1 57 -21 57 -34 0 -3 -6 -6 -14 -6
-8 0 -16 -5 -18 -11 -2 -7 -13 -9 -25 -5 -13 4 -20 13 -17 20 6 15 -37 46 -64
46 -11 0 -25 6 -31 14 -6 7 -26 17 -44 21 -28 6 -30 8 -12 15 18 7 16 9 -12
15 -18 4 -33 11 -33 14 0 14 23 29 36 24 8 -3 14 -1 14 5 0 6 -6 13 -12 15 -9
4 -8 6 3 6 8 1 27 -5 42 -11z m-5473 -34 c0 -8 -4 -14 -10 -14 -5 0 -10 9 -10
21 0 11 5 17 10 14 6 -3 10 -13 10 -21z m480 -5 c0 -5 -4 -9 -10 -9 -5 0 -10
7 -10 16 0 8 5 12 10 9 6 -3 10 -10 10 -16z m95 -19 c4 -6 -10 -10 -35 -10
-25 0 -39 4 -35 10 3 6 19 10 35 10 16 0 32 -4 35 -10z m-544 -7 c-8 -3 -25
-17 -38 -31 -13 -14 -27 -22 -31 -17 -4 4 -1 10 6 12 6 3 12 11 12 18 0 15 16
23 45 23 13 0 15 -1 6 -5z m113 -19 c10 -27 7 -31 -19 -26 -14 2 -25 6 -25 7
0 15 15 35 25 35 7 0 16 -7 19 -16z m4426 -4 c0 -11 -7 -20 -15 -20 -15 0 -21
21 -8 33 12 13 23 7 23 -13z m-4353 -22 c-3 -8 -6 -5 -6 6 -1 11 2 17 5 13 3
-3 4 -12 1 -19z m843 13 c0 -5 -11 -11 -24 -13 -17 -4 -23 -1 -19 9 6 14 43
18 43 4z m-133 -7 c-3 -3 -12 -4 -19 -1 -8 3 -5 6 6 6 11 1 17 -2 13 -5z
m-867 -29 c0 -8 -7 -15 -15 -15 -16 0 -20 12 -8 23 11 12 23 8 23 -8z m855 5
c3 -5 18 -10 33 -11 15 0 21 -3 13 -6 -10 -4 -10 -7 -1 -13 8 -5 1 -13 -20
-24 -44 -21 -54 -20 -84 8 -27 24 -35 52 -13 43 6 -2 21 -1 32 4 28 11 33 11
40 -1z m-915 -55 c0 -8 -4 -15 -10 -15 -5 0 -10 7 -10 15 0 8 5 15 10 15 6 0
10 -7 10 -15z m300 0 c0 -8 -4 -15 -10 -15 -5 0 -10 7 -10 15 0 8 5 15 10 15
6 0 10 -7 10 -15z m541 2 c15 -11 14 -14 -7 -30 -21 -16 -24 -16 -24 -2 0 9
-7 18 -15 21 -8 4 -15 10 -15 15 0 13 42 10 61 -4z m4834 -18 c-10 -15 -25
-10 -19 6 4 8 10 12 15 9 5 -3 7 -10 4 -15z m65 5 c0 -8 -5 -12 -10 -9 -6 4
-8 11 -5 16 9 14 15 11 15 -7z m-1002 -42 c3 -19 -1 -23 -15 -20 -10 2 -19 14
-21 26 -3 19 1 23 15 20 10 -2 19 -14 21 -26z m1004 5 c-12 -5 -26 -5 -36 0
-12 7 -7 9 20 9 30 0 33 -2 16 -9z m-5686 -54 c-11 -11 -19 6 -11 24 8 17 8
17 12 0 3 -10 2 -21 -1 -24z m2724 17 c0 -22 -8 -25 -30 -10 -13 9 -13 11 0
20 22 15 30 12 30 -10z m1533 -57 c9 -43 20 -93 24 -112 l6 -34 -24 16 c-13 9
-31 17 -41 17 -13 0 -18 8 -18 28 0 21 -7 32 -25 40 -14 6 -25 20 -25 29 0 14
2 15 9 4 6 -10 10 -10 16 -1 4 6 5 14 1 17 -3 3 1 12 9 20 8 8 15 23 15 34 0
12 7 19 18 19 14 0 21 -16 35 -77z m1587 57 c0 -22 -8 -25 -30 -10 -13 9 -13
11 0 20 22 15 30 12 30 -10z m-5870 -30 c0 -5 -8 -10 -17 -10 -15 0 -16 2 -3
10 19 12 20 12 20 0z m5066 -17 c4 -16 6 -32 5 -37 -1 -5 3 -13 10 -17 7 -4
14 -13 15 -21 1 -7 5 -20 9 -29 8 -22 -20 -32 -47 -18 -20 11 -37 0 -38 -23 0
-5 -7 -8 -15 -8 -12 0 -15 10 -13 43 2 32 7 44 18 43 9 -1 16 9 18 24 8 74 24
91 38 43z m-5095 -50 c10 3 19 0 19 -6 0 -18 -31 -46 -46 -40 -10 4 -12 0 -8
-11 3 -9 1 -16 -5 -16 -12 0 -16 19 -12 60 3 29 24 47 29 24 3 -10 11 -14 23
-11z m1759 -161 c0 -39 -14 -62 -37 -62 -15 0 -17 23 -4 48 5 9 12 25 15 35
10 31 26 18 26 -21z m-966 -116 c5 -25 13 -46 18 -46 4 0 8 -9 8 -20 0 -30
-26 -24 -47 10 -20 35 -33 39 -33 10 0 -11 -4 -20 -10 -20 -6 0 -10 27 -10 60
l0 60 33 -4 c29 -3 33 -7 41 -50z m5076 44 c0 -5 -4 -10 -10 -10 -5 0 -10 5
-10 10 0 6 5 10 10 10 6 0 10 -4 10 -10z m1880 -10 c0 -5 -4 -10 -10 -10 -5 0
-10 5 -10 10 0 6 5 10 10 10 6 0 10 -4 10 -10z m-4540 -29 c0 -5 -7 -14 -15
-21 -13 -10 -15 -9 -15 9 0 12 6 21 15 21 8 0 15 -4 15 -9z m1770 -51 c0 -11
-4 -20 -10 -20 -5 0 -10 -7 -10 -15 0 -8 -4 -15 -10 -15 -13 0 -13 13 2 45 13
30 28 33 28 5z m98 -23 c2 -12 -3 -17 -17 -17 -15 0 -21 6 -21 21 0 25 33 22
38 -4z m-1163 -387 c3 -5 1 -10 -4 -10 -6 0 -11 5 -11 10 0 6 2 10 4 10 3 0 8
-4 11 -10z m-1600 -18 c-3 -3 -11 0 -18 7 -9 10 -8 11 6 5 10 -3 15 -9 12 -12z
m-495 -322 c0 -5 -6 -10 -14 -10 -8 0 -18 5 -21 10 -3 6 3 10 14 10 12 0 21
-4 21 -10z m20 -30 c0 -5 -4 -10 -10 -10 -5 0 -10 5 -10 10 0 6 5 10 10 10 6
0 10 -4 10 -10z m-2500 -290 c0 -5 -2 -10 -4 -10 -3 0 -8 5 -11 10 -3 6 -1 10
4 10 6 0 11 -4 11 -10z m7780 -760 c0 -5 -4 -10 -10 -10 -5 0 -10 5 -10 10 0
6 5 10 10 10 6 0 10 -4 10 -10z m-390 -230 c0 -5 -8 -10 -17 -10 -15 0 -16 2
-3 10 19 12 20 12 20 0z"/>
<path d="M1780 12136 c0 -14 5 -26 10 -26 6 0 10 9 10 19 0 11 -4 23 -10 26
-6 4 -10 -5 -10 -19z"/>
<path d="M1880 11350 c0 -5 9 -10 20 -10 11 0 20 5 20 10 0 6 -9 10 -20 10
-11 0 -20 -4 -20 -10z"/>
<path d="M2630 10944 c0 -9 7 -14 17 -12 25 5 28 28 4 28 -12 0 -21 -6 -21
-16z"/>
<path d="M3740 10921 c0 -25 5 -41 15 -45 12 -4 15 4 15 39 0 33 -4 45 -15 45
-11 0 -15 -11 -15 -39z"/>
<path d="M2880 10730 c0 -5 9 -10 21 -10 11 0 17 5 14 10 -3 6 -13 10 -21 10
-8 0 -14 -4 -14 -10z"/>
<path d="M5100 10600 c0 -5 5 -10 10 -10 6 0 10 5 10 10 0 6 -4 10 -10 10 -5
0 -10 -4 -10 -10z"/>
<path d="M5122 10520 c0 -14 2 -19 5 -12 2 6 2 18 0 25 -3 6 -5 1 -5 -13z"/>
<path d="M5360 10385 c0 -8 7 -15 15 -15 8 0 15 7 15 15 0 8 -7 15 -15 15 -8
0 -15 -7 -15 -15z"/>
<path d="M5630 10390 c0 -5 5 -10 10 -10 6 0 10 5 10 10 0 6 -4 10 -10 10 -5
0 -10 -4 -10 -10z"/>
<path d="M5120 10310 c0 -5 6 -10 14 -10 8 0 18 5 21 10 3 6 -3 10 -14 10 -12
0 -21 -4 -21 -10z"/>
<path d="M5172 10273 c5 -25 28 -28 28 -4 0 12 -6 21 -16 21 -9 0 -14 -7 -12
-17z"/>
<path d="M1680 10244 c0 -8 5 -12 10 -9 6 3 10 10 10 16 0 5 -4 9 -10 9 -5 0
-10 -7 -10 -16z"/>
<path d="M4705 10230 c3 -5 8 -10 11 -10 2 0 4 5 4 10 0 6 -5 10 -11 10 -5 0
-7 -4 -4 -10z"/>
<path d="M1920 10084 c0 -8 5 -12 10 -9 6 4 8 11 5 16 -9 14 -15 11 -15 -7z"/>
<path d="M1960 10035 c-7 -8 -19 -15 -26 -15 -8 0 -14 -4 -14 -10 0 -13 36
-13 61 0 22 12 26 40 5 40 -7 0 -19 -7 -26 -15z"/>
<path d="M2110 10015 c0 -8 5 -15 10 -15 6 0 10 7 10 15 0 8 -4 15 -10 15 -5
0 -10 -7 -10 -15z"/>
<path d="M2400 9990 c0 -5 5 -10 10 -10 6 0 10 5 10 10 0 6 -4 10 -10 10 -5 0
-10 -4 -10 -10z"/>
<path d="M4160 9985 c0 -9 6 -12 15 -9 8 4 15 10 15 15 0 5 -7 9 -15 9 -8 0
-15 -7 -15 -15z"/>
<path d="M2530 9949 c0 -11 5 -17 10 -14 6 3 10 13 10 21 0 8 -4 14 -10 14 -5
0 -10 -9 -10 -21z"/>
<path d="M4080 9888 c1 -31 1 -32 15 -14 19 25 19 46 0 46 -10 0 -15 -10 -15
-32z"/>
<path d="M2780 9891 c0 -6 5 -13 10 -16 6 -3 10 1 10 9 0 9 -4 16 -10 16 -5 0
-10 -4 -10 -9z"/>
<path d="M3920 9670 c0 -5 5 -10 10 -10 6 0 10 5 10 10 0 6 -4 10 -10 10 -5 0
-10 -4 -10 -10z"/>
<path d="M3360 9537 c0 -9 -6 -17 -12 -20 -8 -2 -9 -8 -4 -13 5 -5 11 -4 13 4
3 6 11 12 20 12 17 0 13 22 -5 28 -7 2 -12 -3 -12 -11z"/>
<path d="M3340 9450 c0 -5 5 -10 10 -10 6 0 10 5 10 10 0 6 -4 10 -10 10 -5 0
-10 -4 -10 -10z"/>
<path d="M3440 9349 c0 -5 5 -7 10 -4 6 3 10 8 10 11 0 2 -4 4 -10 4 -5 0 -10
-5 -10 -11z"/>
<path d="M3985 9130 c-3 -5 -1 -10 4 -10 6 0 11 5 11 10 0 6 -2 10 -4 10 -3 0
-8 -4 -11 -10z"/>
<path d="M3490 8870 c0 -5 7 -10 15 -10 8 0 15 5 15 10 0 6 -7 10 -15 10 -8 0
-15 -4 -15 -10z"/>
<path d="M4000 8840 c0 -22 4 -28 15 -24 8 4 15 14 15 24 0 10 -7 20 -15 24
-11 4 -15 -2 -15 -24z"/>
<path d="M2640 11884 c0 -8 5 -12 10 -9 6 3 10 10 10 16 0 5 -4 9 -10 9 -5 0
-10 -7 -10 -16z"/>
<path d="M3200 11800 c0 -19 3 -21 12 -12 9 9 9 15 0 24 -9 9 -12 7 -12 -12z"/>
<path d="M2780 11800 c0 -5 5 -10 10 -10 6 0 10 5 10 10 0 6 -4 10 -10 10 -5
0 -10 -4 -10 -10z"/>
<path d="M3520 11775 c0 -8 7 -15 15 -15 8 0 15 7 15 15 0 8 -7 15 -15 15 -8
0 -15 -7 -15 -15z"/>
<path d="M2540 11746 c0 -8 5 -18 10 -21 6 -3 10 3 10 14 0 12 -4 21 -10 21
-5 0 -10 -6 -10 -14z"/>
<path d="M2462 11708 c-19 -19 -14 -28 14 -28 18 0 25 5 22 17 -4 21 -21 26
-36 11z"/>
<path d="M2560 11610 c0 -5 5 -10 11 -10 5 0 7 5 4 10 -3 6 -8 10 -11 10 -2 0
-4 -4 -4 -10z"/>
<path d="M3040 11579 c0 -24 23 -21 28 4 2 10 -3 17 -12 17 -10 0 -16 -9 -16
-21z"/>
<path d="M3020 11480 c0 -5 5 -10 10 -10 6 0 10 5 10 10 0 6 -4 10 -10 10 -5
0 -10 -4 -10 -10z"/>
<path d="M1920 9050 c0 -5 5 -10 11 -10 5 0 7 5 4 10 -3 6 -8 10 -11 10 -2 0
-4 -4 -4 -10z"/>
<path d="M1658 9033 c6 -2 18 -2 25 0 6 3 1 5 -13 5 -14 0 -19 -2 -12 -5z"/>
<path d="M1760 9030 c0 -5 5 -10 10 -10 6 0 10 5 10 10 0 6 -4 10 -10 10 -5 0
-10 -4 -10 -10z"/>
<path d="M2000 9007 c0 -15 10 -26 31 -36 16 -7 31 -12 33 -10 2 2 -1 19 -6
37 -7 25 -14 32 -33 32 -19 0 -25 -5 -25 -23z"/>
<path d="M1600 9000 c0 -5 5 -10 10 -10 6 0 10 5 10 10 0 6 -4 10 -10 10 -5 0
-10 -4 -10 -10z"/>
<path d="M1861 8997 c-7 -9 -20 -17 -27 -17 -15 0 -20 -45 -5 -54 5 -3 19 2
31 12 15 12 21 26 18 46 -3 27 -4 28 -17 13z"/>
<path d="M1538 8963 c12 -2 32 -2 45 0 12 2 2 4 -23 4 -25 0 -35 -2 -22 -4z"/>
<path d="M1990 8945 c11 -13 8 -15 -13 -15 -14 0 -29 5 -32 10 -9 15 -25 12
-25 -5 0 -8 7 -15 15 -15 8 0 15 -6 15 -14 0 -7 11 -21 25 -30 25 -16 25 -16
25 11 0 16 3 38 6 51 5 17 2 22 -11 22 -14 0 -15 -3 -5 -15z"/>
<path d="M5575 8970 c-3 -5 1 -10 9 -10 9 0 16 -8 16 -19 0 -23 25 -34 39 -17
7 9 6 19 -5 34 -16 23 -48 29 -59 12z"/>
<path d="M5730 8970 c-13 -8 -13 -10 2 -10 9 0 25 -3 35 -7 17 -6 17 -6 1 10
-19 20 -18 20 -38 7z"/>
<path d="M5825 8910 c-3 -5 -1 -10 4 -10 6 0 11 5 11 10 0 6 -2 10 -4 10 -3 0
-8 -4 -11 -10z"/>
<path d="M5850 8870 c0 -5 4 -10 9 -10 6 0 13 5 16 10 3 6 -1 10 -9 10 -9 0
-16 -4 -16 -10z"/>
<path d="M6000 9476 c0 -8 -6 -16 -12 -19 -7 -2 -10 -7 -6 -11 8 -10 49 25 42
36 -8 13 -24 9 -24 -6z"/>
<path d="M6240 9465 c0 -8 -5 -15 -12 -15 -6 0 -9 -2 -6 -5 3 -3 17 1 31 8 26
14 26 27 0 27 -7 0 -13 -7 -13 -15z"/>
<path d="M6280 9446 c0 -2 9 -6 20 -9 11 -3 20 -1 20 4 0 5 -9 9 -20 9 -11 0
-20 -2 -20 -4z"/>
<path d="M6160 9424 c0 -9 5 -14 12 -12 18 6 21 28 4 28 -9 0 -16 -7 -16 -16z"/>
<path d="M6860 9404 c0 -9 7 -14 17 -12 25 5 28 28 4 28 -12 0 -21 -6 -21 -16z"/>
<path d="M6081 9374 c0 -11 3 -14 6 -6 3 7 2 16 -1 19 -3 4 -6 -2 -5 -13z"/>
<path d="M5265 9251 c-3 -5 -1 -12 5 -16 5 -3 10 1 10 9 0 18 -6 21 -15 7z"/>
<path d="M5264 9184 c3 -9 6 -18 6 -20 0 -2 4 -4 9 -4 5 0 7 9 4 20 -3 11 -10
20 -15 20 -6 0 -7 -7 -4 -16z"/>
<path d="M696 8805 c-3 -9 0 -15 8 -15 8 0 23 -12 34 -27 19 -26 21 -27 28 -9
5 14 0 25 -22 43 -34 27 -40 28 -48 8z"/>
<path d="M514 8455 c-3 -8 -3 -19 1 -25 11 -18 25 -11 25 15 0 27 -17 34 -26
10z"/>
<path d="M3800 8232 c0 -10 22 -32 32 -32 4 0 8 9 8 20 0 13 -7 20 -20 20 -11
0 -20 -4 -20 -8z"/>
<path d="M660 8200 c0 -5 5 -10 11 -10 5 0 7 5 4 10 -3 6 -8 10 -11 10 -2 0
-4 -4 -4 -10z"/>
<path d="M6400 8069 c0 -5 5 -7 10 -4 6 3 10 8 10 11 0 2 -4 4 -10 4 -5 0 -10
-5 -10 -11z"/>
<path d="M3585 8010 c-3 -5 -1 -10 4 -10 6 0 11 5 11 10 0 6 -2 10 -4 10 -3 0
-8 -4 -11 -10z"/>
<path d="M3900 7990 c0 -5 5 -10 10 -10 6 0 10 5 10 10 0 6 -4 10 -10 10 -5 0
-10 -4 -10 -10z"/>
<path d="M3520 7960 c0 -5 18 -10 40 -10 22 0 40 5 40 10 0 6 -18 10 -40 10
-22 0 -40 -4 -40 -10z"/>
<path d="M3840 7930 c0 -5 5 -10 10 -10 6 0 10 5 10 10 0 6 -4 10 -10 10 -5 0
-10 -4 -10 -10z"/>
<path d="M5725 7930 c-18 -8 -17 -9 8 -9 15 -1 27 4 27 9 0 12 -8 12 -35 0z"/>
<path d="M5657 7804 c-8 -8 1 -24 14 -24 5 0 9 7 9 15 0 15 -12 20 -23 9z"/>
<path d="M4300 7753 c0 -5 5 -15 10 -23 8 -12 10 -11 10 8 0 12 -4 22 -10 22
-5 0 -10 -3 -10 -7z"/>
<path d="M4400 7710 c0 -29 3 -50 7 -46 7 7 5 87 -3 95 -2 2 -4 -20 -4 -49z"/>
<path d="M8960 7585 c0 -25 4 -35 13 -32 6 2 12 16 12 32 0 16 -6 30 -12 33
-9 2 -13 -8 -13 -33z"/>
<path d="M2140 7482 c0 -5 7 -13 16 -16 10 -4 14 -1 12 6 -5 15 -28 23 -28 10z"/>
<path d="M2473 7343 c-17 -6 -16 -31 2 -49 13 -14 15 -11 15 20 0 20 -1 36 -2
35 -2 0 -9 -3 -15 -6z"/>
<path d="M8937 7283 c-4 -3 -7 -24 -7 -45 0 -44 26 -54 36 -14 10 41 -9 80
-29 59z"/>
<path d="M2640 7170 c0 -13 7 -20 19 -20 28 0 35 17 12 29 -27 15 -31 14 -31
-9z"/>
<path d="M2290 7105 c0 -9 7 -18 15 -21 8 -4 15 -13 15 -20 0 -12 4 -12 22 -3
17 9 24 9 33 -5 22 -29 35 -18 34 27 -1 23 -3 34 -6 25 -5 -22 -36 -23 -53 -3
-17 20 -60 20 -60 0z"/>
<path d="M2565 7090 c-4 -7 -3 -16 3 -22 14 -14 47 -6 47 12 0 18 -40 26 -50
10z"/>
<path d="M8371 6903 c-1 -12 4 -25 9 -28 6 -3 10 -16 11 -28 0 -13 3 -16 6 -9
3 8 1 24 -5 35 -6 12 -13 29 -15 37 -4 9 -6 7 -6 -7z"/>
<path d="M2400 6896 c0 -9 5 -16 10 -16 6 0 10 4 10 9 0 6 -4 13 -10 16 -5 3
-10 -1 -10 -9z"/>
<path d="M4738 6803 c21 -4 22 -9 22 -104 0 -97 -1 -99 -20 -89 -16 8 -20 21
-20 60 0 31 -4 50 -11 50 -8 0 -10 -18 -5 -61 3 -34 6 -70 6 -80 0 -16 8 -19
45 -19 41 0 45 -2 45 -24 0 -13 3 -31 6 -40 4 -11 1 -16 -10 -16 -13 0 -16
-11 -16 -54 0 -30 5 -58 10 -61 6 -3 10 -15 10 -26 0 -32 38 -25 42 9 2 19 9
27 23 27 16 0 19 -6 17 -27 -2 -21 2 -28 15 -28 11 0 24 -15 35 -40 9 -22 12
-40 7 -40 -15 0 -10 -30 6 -36 10 -4 15 -21 15 -53 1 -36 3 -42 11 -28 13 23
29 22 29 -3 0 -11 -4 -20 -10 -20 -5 0 -10 -4 -10 -10 0 -5 7 -10 15 -10 12 0
15 -16 15 -81 0 -84 -10 -119 -35 -119 -18 0 -20 -37 -2 -43 7 -2 8 -8 3 -13
-5 -5 -11 -4 -13 4 -3 6 -13 12 -23 12 -10 0 -20 7 -24 15 -8 21 -25 19 -47
-6 -23 -26 -50 -19 -103 28 -21 20 -41 31 -45 26 -8 -13 -81 -24 -81 -14 0 5
-8 11 -17 15 -10 3 -24 9 -30 12 -8 4 -13 -2 -13 -15 0 -12 -4 -21 -10 -21 -5
0 -10 9 -10 20 0 11 -5 20 -11 20 -6 0 -8 -9 -4 -20 3 -11 4 -20 0 -20 -14 0
-65 45 -65 57 0 17 -19 17 -39 -1 -13 -12 -29 -13 -73 -7 -35 5 -61 4 -67 -2
-6 -6 -57 -9 -116 -8 l-105 2 0 -41 c0 -35 -3 -40 -22 -40 l-23 -1 24 -20 c21
-17 22 -22 10 -30 -19 -12 -26 -11 -54 7 -24 15 -25 15 -36 -10 -15 -33 -23
-33 -39 2 -11 22 -14 24 -17 10 -3 -14 -15 -18 -44 -18 -33 0 -39 -3 -39 -21
0 -19 -4 -20 -52 -16 -29 3 -68 9 -85 12 -18 4 -41 4 -50 0 -21 -9 -21 -9 -50
0 -19 5 -23 3 -23 -15 0 -14 -5 -20 -12 -16 -7 3 -21 9 -30 12 -10 4 -18 14
-18 23 -1 22 -47 54 -67 47 -13 -5 -14 -9 -5 -18 19 -19 14 -28 -15 -28 -52 0
-73 -11 -73 -36 0 -14 -5 -22 -12 -19 -20 7 -46 -13 -31 -23 16 -10 5 -52 -14
-52 -20 0 -56 20 -66 36 -4 8 -15 14 -22 14 -8 0 -15 3 -15 8 0 4 -16 18 -36
31 -21 14 -33 30 -30 38 3 8 -4 17 -18 23 -13 4 -26 16 -29 24 -4 9 -17 16
-29 16 -13 1 -36 1 -52 1 -17 1 -35 -6 -42 -15 -6 -9 -18 -16 -26 -16 -9 0
-21 -7 -28 -15 -7 -8 -21 -15 -31 -15 -11 0 -19 -4 -19 -10 0 -5 -9 -10 -20
-10 -26 0 -42 -33 -43 -92 -1 -55 10 -67 83 -93 115 -42 209 -94 225 -124 8
-17 20 -31 25 -31 6 0 15 -11 22 -24 6 -14 24 -30 39 -37 16 -6 29 -16 29 -21
0 -13 21 -33 43 -41 9 -3 17 -11 17 -17 0 -5 6 -10 14 -10 15 0 28 -58 14 -66
-12 -8 11 -34 28 -34 8 0 14 7 14 15 0 20 26 19 34 -1 4 -9 2 -22 -4 -29 -15
-18 13 -27 36 -11 12 8 27 10 39 5 19 -7 19 -8 -1 -8 -23 -1 -34 -17 -27 -38
3 -7 9 -13 15 -13 6 0 21 -11 34 -25 32 -34 44 -31 44 11 0 24 4 34 13 31 15
-5 13 -70 -2 -75 -15 -5 -14 -49 1 -54 8 -3 14 -33 16 -81 3 -44 9 -77 15 -77
6 0 8 -28 4 -80 -3 -44 -2 -80 1 -80 9 0 32 -50 32 -67 0 -7 5 -13 10 -13 6 0
10 7 10 15 0 22 66 20 79 -2 7 -14 12 -15 24 -5 10 9 17 10 22 2 3 -5 0 -11
-7 -11 -7 -1 0 -4 16 -8 16 -3 32 -13 36 -21 4 -8 12 -25 19 -37 10 -21 9 -23
-13 -23 -14 0 -27 4 -30 9 -3 5 -34 6 -69 4 -47 -4 -71 -1 -95 11 -17 9 -44
18 -59 20 -15 2 -40 6 -54 10 -27 8 -144 -18 -167 -36 -7 -6 -36 -10 -64 -9
-30 0 -55 -4 -59 -11 -8 -12 -44 -17 -141 -21 -32 -1 -63 -8 -70 -15 -6 -6
-27 -12 -45 -12 -19 0 -41 -8 -52 -19 -10 -10 -36 -21 -57 -25 -59 -11 -110
-38 -128 -68 -17 -28 -48 -44 -79 -39 -9 1 -20 -5 -23 -13 -8 -20 -44 -21 -44
-1 0 8 -5 15 -10 15 -6 0 -13 -7 -16 -15 -9 -23 -33 -18 -46 10 -13 29 -21 31
-38 10 -7 -8 -21 -15 -31 -15 -11 0 -19 -4 -19 -10 0 -5 -10 -10 -22 -11 -18
-1 -16 -3 9 -10 18 -5 35 -13 38 -18 9 -15 -52 -23 -76 -10 -17 9 -24 9 -27 0
-2 -6 -12 -11 -22 -11 -11 0 -22 -11 -29 -30 -5 -16 -15 -30 -20 -30 -6 0 -11
-13 -11 -28 0 -25 -3 -28 -28 -25 -27 4 -27 4 -29 -52 -3 -63 -11 -85 -23 -64
-7 10 -11 10 -24 0 -20 -17 -23 -117 -3 -124 9 -3 7 -10 -6 -25 -11 -11 -24
-18 -31 -16 -21 8 -39 -22 -27 -45 7 -13 8 -28 2 -43 -5 -13 -12 -35 -15 -50
-6 -25 -11 -28 -46 -28 -44 0 -52 -9 -60 -64 -5 -41 -30 -63 -30 -27 0 25 -33
44 -60 36 -19 -6 -19 -7 -2 -30 9 -13 26 -26 37 -28 19 -3 19 -4 1 -12 -11 -5
-25 -4 -35 2 -12 8 -18 5 -26 -11 -13 -25 -38 -28 -43 -4 -2 10 2 18 8 18 16
0 -11 26 -35 34 -11 3 -31 23 -45 43 -14 21 -27 40 -30 43 -7 7 -29 42 -37 60
-16 37 -87 147 -109 170 -13 14 -30 45 -38 69 -9 23 -27 56 -41 73 -14 16 -25
39 -25 50 0 28 -38 78 -59 78 -20 0 -93 -65 -111 -99 -11 -21 -17 -23 -56 -17
-33 4 -44 2 -44 -8 0 -7 -20 -30 -45 -50 -24 -20 -50 -43 -57 -50 -7 -7 -35
-23 -62 -36 -29 -15 -52 -35 -58 -49 -5 -13 -16 -30 -24 -36 -10 -7 -19 -35
-23 -76 -4 -35 -10 -70 -14 -76 -13 -20 -41 -15 -66 11 -13 13 -31 26 -42 29
-16 4 -19 0 -19 -24 0 -29 -38 -79 -60 -79 -5 0 -10 -8 -10 -17 0 -10 -8 -39
-17 -65 -12 -33 -23 -48 -35 -48 -23 0 -23 -5 2 -30 14 -14 20 -33 20 -65 0
-25 -4 -45 -9 -45 -5 0 -11 -7 -13 -16 -2 -14 -8 -13 -35 10 -33 28 -90 52
-100 42 -3 -3 11 -24 31 -46 20 -22 36 -43 36 -48 -1 -24 -31 -87 -48 -101
-14 -11 -22 -30 -24 -61 -3 -56 -23 -80 -65 -80 -23 0 -33 -5 -33 -15 0 -8 5
-15 10 -15 6 0 10 -7 10 -15 0 -8 -9 -15 -20 -15 -13 0 -24 -10 -30 -26 -15
-40 -13 -57 8 -49 9 4 41 9 70 12 57 6 68 -6 32 -37 -18 -16 -19 -23 -9 -111
5 -52 14 -102 20 -112 11 -20 3 -74 -13 -94 -17 -21 -46 -15 -65 13 -41 60
-131 144 -155 144 -13 0 -29 5 -35 11 -9 9 -21 6 -47 -11 -20 -12 -36 -25 -36
-30 0 -4 10 -27 22 -49 17 -33 27 -41 49 -41 15 0 35 -8 45 -17 31 -32 149
-123 158 -123 10 0 35 -30 36 -42 0 -5 -16 -6 -35 -3 -19 2 -35 2 -35 -1 0
-14 31 -34 54 -34 14 0 26 -5 26 -11 0 -6 7 -9 15 -5 8 3 26 -5 39 -17 25 -22
25 -23 12 -92 -7 -38 -16 -78 -21 -87 -5 -14 -2 -18 14 -18 13 0 23 -8 27 -24
3 -13 16 -28 30 -35 28 -12 30 -24 8 -46 -14 -13 -19 -14 -25 -3 -7 10 -9 9
-9 -3 0 -9 -10 -23 -22 -31 -18 -12 -20 -18 -12 -29 17 -20 27 -76 15 -83 -5
-3 -54 -9 -108 -12 -54 -3 -99 -10 -101 -15 -6 -17 -22 -9 -22 10 0 27 -17 35
-28 15 -9 -16 -12 -16 -46 0 -40 19 -45 32 -19 53 16 13 15 14 -14 10 -39 -4
-45 18 -13 46 24 20 26 50 4 71 -17 18 -60 21 -69 6 -3 -5 -13 -10 -21 -10
-17 0 -19 27 -2 32 8 3 12 19 10 41 -3 29 0 37 13 37 11 0 15 6 10 19 -6 21
18 46 36 35 8 -5 10 1 7 19 -6 31 27 51 57 34 14 -7 20 -7 23 2 2 6 35 27 73
46 95 48 94 72 -2 55 -30 -5 -82 -12 -117 -14 -36 -3 -75 -12 -90 -22 -18 -12
-27 -13 -30 -6 -5 17 -20 15 -53 -9 -30 -21 -38 -54 -16 -62 9 -4 9 -6 0 -6
-20 -1 -18 -168 2 -187 8 -9 15 -25 15 -38 0 -12 5 -27 12 -34 9 -9 9 -15 0
-24 -7 -7 -12 -20 -12 -30 0 -10 -7 -18 -16 -18 -14 0 -14 -3 -4 -15 9 -10 9
-15 1 -15 -8 0 -11 -250 -11 -935 l0 -935 1920 0 1920 0 0 40 c0 39 -1 40 -36
40 -28 0 -46 9 -78 37 -34 31 -41 34 -44 20 -3 -13 -11 -17 -30 -15 -29 3 -45
38 -18 38 9 0 16 5 16 10 0 14 -48 12 -52 -2 -9 -26 -38 2 -38 37 0 24 -4 35
-15 35 -19 0 -21 66 -2 73 7 3 5 6 -5 6 -13 1 -18 -7 -18 -29 0 -35 -23 -41
-40 -10 -6 11 -21 20 -34 20 -39 0 -48 22 -44 105 3 69 1 75 -17 76 -11 0 -14
3 -7 6 18 7 16 73 -3 73 -11 0 -15 -11 -15 -40 0 -39 -1 -40 -35 -40 -34 0
-35 1 -35 40 0 22 5 40 10 40 16 0 12 30 -5 36 -19 8 -19 43 0 50 9 4 15 19
15 40 0 24 -5 34 -15 34 -11 0 -15 -11 -15 -40 0 -31 -4 -40 -17 -40 -16 0
-18 11 -15 120 2 67 -1 120 -6 120 -5 0 -14 12 -21 27 -9 20 -15 24 -21 14
-10 -18 -30 -5 -30 20 0 12 -7 19 -20 19 -17 0 -20 7 -20 40 0 23 5 40 11 40
8 0 9 24 4 80 l-7 80 31 0 c30 0 31 -2 31 -40 0 -38 2 -40 30 -40 28 0 30 -2
30 -40 0 -22 5 -40 10 -40 16 0 11 -102 -5 -124 -22 -29 -19 -36 15 -36 28 0
30 2 30 40 0 36 3 40 25 40 20 0 25 5 25 25 0 23 4 25 40 25 23 0 40 -5 40
-11 0 -7 15 -10 40 -7 l40 4 0 -98 c0 -87 2 -98 18 -98 14 0 16 -8 14 -49 -3
-42 0 -51 22 -69 14 -11 25 -28 24 -38 0 -11 0 -34 0 -51 2 -27 6 -33 25 -33
13 0 28 -5 34 -11 8 -8 13 -8 17 0 4 6 32 11 62 11 l54 0 0 -40 c0 -36 3 -40
25 -40 18 0 25 -5 25 -20 0 -10 9 -24 20 -30 11 -6 20 -15 20 -20 0 -6 -9 -10
-20 -10 -18 0 -20 -7 -20 -80 l0 -80 -35 0 c-33 0 -35 2 -35 34 0 19 6 37 13
39 7 3 5 6 -5 6 -15 1 -18 -8 -18 -45 l0 -47 64 7 c35 3 71 4 80 0 19 -7 22
-60 4 -67 -10 -4 -10 -7 0 -18 9 -9 12 -10 12 -1 0 7 16 12 40 12 l40 0 0 -80
0 -80 2525 0 2525 0 0 1750 c0 1087 -4 1750 -9 1750 -16 0 -24 -21 -12 -33 17
-17 13 -27 -10 -27 -26 0 -60 39 -53 63 4 13 0 17 -17 17 -45 0 -2 22 45 24
28 0 46 6 46 13 0 6 -5 13 -10 15 -6 2 -15 31 -20 65 -4 34 -11 67 -15 72 -3
6 -22 9 -43 8 -26 -1 -38 -7 -40 -19 -2 -11 3 -18 12 -18 12 0 16 -10 16 -40
0 -22 5 -40 10 -40 6 0 10 -6 10 -13 0 -7 -18 -18 -40 -24 -32 -8 -40 -8 -40
3 0 8 7 14 15 14 8 0 15 5 15 10 0 6 -7 10 -15 10 -9 0 -15 10 -16 28 -2 49
-17 -34 -23 -122 -3 -43 -9 -83 -14 -88 -22 -22 -79 -10 -145 30 -37 22 -76
43 -87 47 -11 3 -20 10 -20 15 0 4 -17 16 -37 25 -21 10 -56 30 -78 45 -22 15
-77 46 -122 70 -63 32 -83 47 -83 63 0 19 45 88 62 95 14 6 45 74 57 128 7 29
21 61 31 72 10 11 25 36 34 55 8 19 24 38 35 42 16 5 21 15 21 39 0 19 7 39
15 46 8 7 15 22 15 34 0 12 5 27 11 33 6 6 13 38 16 71 6 61 5 61 -59 169 -36
59 -83 126 -104 149 -22 23 -56 62 -77 87 -54 66 -150 137 -205 152 -26 7 -74
26 -107 42 -55 28 -71 31 -205 37 -80 4 -171 12 -203 18 -59 12 -121 3 -212
-32 -16 -6 -32 -10 -34 -8 -8 5 -40 -113 -35 -127 3 -7 -2 -15 -10 -18 -9 -4
-16 -14 -16 -22 0 -9 -4 -14 -8 -11 -4 2 -14 -9 -22 -27 -10 -23 -10 -32 -2
-35 13 -4 16 -35 5 -46 -5 -4 -9 -11 -9 -14 -6 -31 -19 -52 -30 -52 -10 0 -11
-6 -2 -31 9 -25 7 -34 -10 -52 -10 -12 -18 -28 -16 -35 1 -7 0 -8 -3 -2 -2 5
-12 10 -20 10 -14 0 -14 -3 2 -20 17 -19 17 -21 1 -39 -13 -15 -14 -20 -4 -25
7 -3 3 -3 -9 0 -20 5 -23 1 -23 -21 0 -20 4 -26 15 -21 8 3 15 1 15 -3 0 -5
-7 -11 -15 -15 -8 -3 -13 -11 -10 -18 6 -16 -11 -45 -21 -35 -4 3 -1 13 6 22
9 11 9 15 1 15 -7 0 -11 6 -10 13 4 34 -2 39 -21 17 -26 -30 -25 -54 2 -90 12
-16 19 -33 15 -37 -4 -3 -7 -1 -7 5 0 20 -17 13 -25 -10 l-8 -23 -4 23 c-5 27
-20 29 -28 2 -9 -28 -28 -13 -21 16 4 14 2 24 -4 24 -13 0 -30 -43 -30 -76 0
-17 -5 -24 -20 -24 -14 0 -20 7 -20 21 0 15 -4 19 -16 15 -9 -3 -20 -6 -25 -6
-15 0 -11 -19 16 -72 29 -58 29 -58 10 -58 -8 0 -15 -7 -15 -15 0 -18 -16 -20
-26 -3 -4 6 0 16 8 22 14 10 13 17 -6 56 -14 31 -22 40 -24 27 -7 -36 -27 -9
-30 41 -4 61 -22 71 -22 12 0 -29 -4 -40 -15 -40 -22 0 -19 -36 5 -60 11 -11
29 -20 40 -20 30 0 24 -18 -7 -22 -22 -2 -29 -9 -31 -30 -2 -20 -9 -28 -23
-28 -16 0 -19 7 -19 40 0 41 -21 57 -34 25 -7 -19 -26 -19 -26 0 0 8 -9 15
-20 15 -13 0 -22 9 -26 25 -3 14 -12 25 -20 25 -8 0 -14 -10 -14 -25 0 -14 -4
-25 -9 -25 -5 0 -11 -9 -14 -20 -7 -26 -27 -26 -34 0 -5 18 -14 20 -78 20
l-72 0 -5 52 c-3 29 -11 54 -17 56 -6 2 -11 15 -11 28 0 21 -5 24 -35 24 -34
0 -35 1 -37 43 -1 37 -2 38 -5 9 -3 -25 -9 -32 -21 -30 -13 2 -18 18 -23 73
-4 49 -6 57 -7 28 -1 -31 -6 -43 -17 -43 -10 0 -15 -10 -15 -27 0 -21 7 -31
27 -40 15 -7 33 -13 40 -13 9 0 13 -17 13 -55 0 -57 -8 -66 -34 -40 -8 8 -21
15 -29 15 -9 0 -17 3 -20 8 -2 4 -3 2 -1 -3 1 -6 -4 -19 -11 -29 -15 -19 -35
-14 -35 10 0 8 -7 14 -15 14 -19 0 -19 3 5 52 11 23 20 57 20 75 0 26 4 33 20
33 18 0 20 7 20 62 0 60 0 61 -20 43 -19 -17 -20 -17 -29 8 -6 15 -13 85 -17
157 -7 128 -7 130 -30 130 -21 0 -24 5 -24 40 0 29 -4 40 -15 40 -11 0 -15 12
-16 43 -1 34 -2 37 -8 17 l-7 -25 -15 23 c-7 12 -22 22 -31 22 -14 0 -18 9
-19 38 -1 20 -4 50 -8 67 l-6 29 -20 -21 c-11 -11 -35 -24 -52 -28 -33 -7 -33
-7 -33 34 l0 41 -45 0 -45 0 0 40 c0 28 -4 40 -14 40 -10 0 -16 14 -19 43 -2
23 -4 5 -5 -40 -2 -76 -4 -83 -22 -83 -18 0 -20 7 -20 80 0 73 -2 80 -20 80
-17 0 -20 -7 -20 -40 0 -33 -3 -40 -20 -40 -17 0 -20 7 -20 40 l0 40 -62 2
c-35 1 -81 2 -103 1 -22 0 -30 1 -17 4 17 3 22 11 22 33 0 19 6 30 18 33 9 2
1 2 -18 0 -34 -3 -36 -2 -58 49 -16 39 -22 72 -22 126 0 65 2 72 20 72 17 0
20 7 20 40 0 22 5 49 12 59 15 25 4 51 -20 44 -11 -2 -23 0 -26 6 -9 13 -46
15 -46 2 0 -5 5 -11 12 -13 7 -3 8 -10 3 -17 -12 -21 -42 36 -48 92 -4 39 -1
49 14 58 27 14 26 65 -1 72 -14 3 -20 14 -20 31 0 16 -6 26 -15 26 -11 0 -15
11 -15 40 0 37 -2 40 -29 40 -24 0 -31 6 -41 33 -10 24 -14 27 -17 15 -3 -10
-9 -18 -13 -18 -6 0 -5 11 0 26 14 37 13 104 -3 104 -7 0 -18 9 -25 20 -7 11
-19 20 -27 20 -8 0 -15 -9 -15 -20 0 -11 -4 -20 -10 -20 -5 0 -10 18 -10 40 0
22 5 40 10 40 6 0 10 5 10 11 0 8 -5 8 -15 -1 -24 -20 -43 -4 -47 37 -3 34 -6
38 -28 35 -23 -2 -24 -1 -7 11 23 19 22 39 -3 55 -12 7 -20 23 -20 38 0 17 7
28 20 31 11 3 20 9 20 14 0 12 -37 11 -45 -1 -12 -20 -35 -10 -35 15 0 14 -4
25 -10 25 -5 0 -10 9 -10 21 0 14 5 19 14 16 16 -6 36 11 36 30 0 7 -16 19
-35 27 -19 8 -35 20 -35 25 0 6 -7 11 -15 11 -11 0 -15 11 -16 38 0 25 -3 31
-8 19 -6 -17 -8 -17 -33 2 -14 12 -38 21 -52 21 -24 0 -26 4 -26 39 0 29 5 41
18 44 9 3 -3 5 -28 4 -25 0 -35 -2 -22 -4z m97 -413 c-3 -5 -13 -10 -21 -10
-8 0 -14 5 -14 10 0 6 9 10 21 10 11 0 17 -4 14 -10z m442 -437 c-3 -3 -11 -2
-17 2 -8 5 -7 11 2 22 12 15 13 14 16 -1 2 -10 1 -20 -1 -23z m38 -103 c3 -5
-3 -10 -14 -10 -12 0 -21 5 -21 10 0 6 6 10 14 10 8 0 18 -4 21 -10z m-1055
-4 c0 -3 -4 -8 -10 -11 -5 -3 -10 -1 -10 4 0 6 5 11 10 11 6 0 10 -2 10 -4z
m537 -48 c-3 -8 -6 -5 -6 6 -1 11 2 17 5 13 3 -3 4 -12 1 -19z m563 -368 c0
-5 -2 -10 -4 -10 -3 0 -8 5 -11 10 -3 6 -1 10 4 10 6 0 11 -4 11 -10z m-2005
-111 c0 -7 -8 -15 -17 -17 -18 -3 -25 18 -11 32 10 10 28 1 28 -15z m25 -25
c0 -3 -6 -12 -14 -19 -17 -18 -29 -8 -13 11 12 14 27 18 27 8z m150 -127 c0
-26 -4 -33 -20 -34 -14 -1 -20 4 -20 18 0 10 7 19 15 19 8 0 15 7 15 15 0 8 2
15 5 15 3 0 5 -15 5 -33z m40 -7 c0 -29 -4 -40 -15 -40 -11 0 -15 11 -15 40 0
29 4 40 15 40 11 0 15 -11 15 -40z m2270 -216 c0 -8 -4 -12 -10 -9 -5 3 -10
10 -10 16 0 5 5 9 10 9 6 0 10 -7 10 -16z m1460 -214 c0 -5 -4 -10 -10 -10 -5
0 -10 5 -10 10 0 6 5 10 10 10 6 0 10 -4 10 -10z m-4050 -275 c0 -8 -4 -15
-10 -15 -5 0 -10 7 -10 15 0 8 5 15 10 15 6 0 10 -7 10 -15z m3790 -340 c0 -8
-4 -15 -10 -15 -5 0 -10 7 -10 15 0 8 5 15 10 15 6 0 10 -7 10 -15z m-720 -51
c0 -17 -22 -14 -28 4 -2 7 3 12 12 12 9 0 16 -7 16 -16z m680 6 c0 -5 -4 -10
-10 -10 -5 0 -10 5 -10 10 0 6 5 10 10 10 6 0 10 -4 10 -10z m-435 -70 c-3 -5
-12 -10 -18 -10 -7 0 -6 4 3 10 19 12 23 12 15 0z m-5152 -60 c4 -17 0 -20
-24 -20 -28 0 -28 1 -12 20 10 11 20 20 24 20 4 0 9 -9 12 -20z m-216 -146 c5
-15 -47 -28 -60 -15 -5 5 -6 14 -2 21 9 14 57 9 62 -6z m-172 -154 c1 -39 0
-40 -32 -40 -18 0 -33 3 -33 6 0 8 53 72 60 73 3 1 5 -17 5 -39z m-89 -118
c15 -9 28 -68 17 -75 -4 -3 -24 -6 -43 -8 -27 -3 -34 0 -31 11 2 8 6 26 9 40
4 22 18 40 32 40 3 0 10 -4 16 -8z m-103 -144 c-11 -15 -10 -54 1 -115 l8 -43
-47 0 c-41 0 -46 2 -40 18 4 9 11 35 17 56 10 43 43 96 60 96 7 0 7 -4 1 -12z
m47 -216 c-14 -5 -30 16 -30 38 1 10 7 7 21 -10 14 -17 17 -26 9 -28z m-40 3
c12 -14 6 -35 -10 -35 -11 0 -40 29 -40 41 0 14 36 11 50 -6z m1200 -26 c0
-12 79 -127 105 -153 8 -8 15 -23 15 -33 0 -11 5 -24 12 -31 9 -9 9 -15 0 -24
-16 -16 -15 -66 2 -84 8 -8 32 -14 52 -14 30 0 35 -3 26 -12 -7 -7 -12 -25
-12 -40 0 -21 -5 -28 -20 -28 -16 0 -20 -7 -20 -34 0 -19 -3 -41 -6 -50 -8
-21 48 -50 65 -33 10 9 15 8 26 -8 8 -11 20 -26 26 -33 9 -11 4 -20 -22 -45
-29 -27 -31 -32 -16 -35 19 -4 20 -23 2 -64 -6 -16 -1 -18 44 -18 l51 0 0 -80
0 -80 28 0 27 -1 -27 -15 c-37 -19 -35 -31 7 -51 33 -16 35 -20 35 -64 0 -44
2 -47 30 -52 27 -6 43 -27 20 -27 -5 0 -10 -7 -10 -15 0 -8 -8 -15 -17 -15
-17 -1 -17 -1 0 -11 27 -16 22 -49 -8 -49 -14 0 -25 -4 -25 -10 0 -5 5 -10 10
-10 6 0 10 -8 10 -19 0 -10 6 -24 13 -30 13 -10 22 -81 11 -81 -3 0 -15 11
-28 25 -13 14 -28 25 -35 25 -19 0 -12 -21 14 -46 28 -26 31 -34 11 -34 -7 0
-19 -13 -26 -29 -13 -32 -42 -50 -49 -30 -2 6 -13 21 -24 32 -12 12 -22 28
-24 35 -1 8 -25 62 -55 120 -29 59 -51 114 -50 124 2 9 -3 27 -11 40 -8 13
-18 39 -22 58 -4 19 -12 38 -18 42 -5 3 -13 39 -16 80 -4 40 -12 83 -19 96 -7
12 -15 60 -18 105 -3 45 -8 89 -11 97 -3 8 -9 51 -14 95 -18 180 -39 354 -52
425 -7 42 -12 81 -9 88 5 15 22 16 22 1z m-1265 -35 c22 -29 25 -38 14 -45 -8
-5 -20 -9 -26 -9 -7 0 -13 -6 -13 -14 0 -24 -20 -29 -35 -10 -14 20 -27 93
-19 106 13 20 53 6 79 -28z m55 -150 c0 -22 -22 -12 -31 14 -8 20 -6 21 11 12
11 -6 20 -18 20 -26z m-60 -48 c0 -2 3 -11 6 -19 3 -8 -8 -30 -24 -48 -44 -51
-48 -74 -17 -95 38 -25 57 -67 45 -98 -8 -21 -16 -26 -44 -26 -21 0 -36 -6
-40 -15 -3 -8 -13 -15 -23 -15 -15 0 -18 8 -17 53 1 73 2 77 19 77 8 0 15 4
15 9 0 5 -7 11 -15 15 -11 4 -15 23 -15 79 0 41 3 77 7 80 7 7 103 10 103 3z
m1630 -367 c0 -11 -4 -17 -10 -14 -5 3 -10 13 -10 21 0 8 5 14 10 14 6 0 10
-9 10 -21z m25 -49 c3 -5 -1 -10 -9 -10 -9 0 -16 5 -16 10 0 6 4 10 9 10 6 0
13 -4 16 -10z m1525 0 c0 -5 -7 -10 -16 -10 -8 0 -12 5 -9 10 3 6 10 10 16 10
5 0 9 -4 9 -10z m290 0 c0 -5 -7 -10 -16 -10 -8 0 -12 5 -9 10 3 6 10 10 16
10 5 0 9 -4 9 -10z m-3467 -9 c52 -20 37 -56 -38 -97 -44 -23 -65 -9 -35 24
11 12 16 23 10 27 -14 9 -12 42 3 48 19 8 34 8 60 -2z m2972 -41 c0 -18 -33
-26 -47 -12 -6 6 -7 15 -3 22 10 16 50 8 50 -10z m95 -25 c0 -11 -11 -15 -40
-15 -29 0 -40 4 -40 15 0 11 11 15 40 15 29 0 40 -4 40 -15z m-720 -30 c0 -8
-4 -15 -10 -15 -5 0 -10 7 -10 15 0 8 5 15 10 15 6 0 10 -7 10 -15z m-77 -77
c4 -10 7 -10 18 0 21 19 29 14 29 -18 0 -20 5 -30 15 -30 8 0 15 -8 15 -19 0
-10 9 -21 20 -24 24 -6 26 -25 5 -34 -18 -6 -55 23 -55 44 0 7 -5 13 -11 13
-5 0 -7 5 -4 11 4 6 -2 13 -14 16 -12 3 -21 12 -21 19 0 8 -6 14 -14 14 -8 0
-18 5 -21 10 -3 6 3 10 14 10 10 0 21 -6 24 -12z m207 4 c0 -5 -7 -17 -16 -28
-11 -13 -17 -15 -20 -6 -4 7 -24 12 -50 12 -32 0 -44 4 -44 15 0 12 14 15 65
15 36 0 65 -4 65 -8z m-2437 -37 c-1 -5 -23 -14 -49 -19 -35 -6 -48 -5 -54 5
-5 7 -6 17 -3 22 7 11 108 4 106 -8z m1667 -75 c0 -5 -4 -10 -10 -10 -5 0 -10
5 -10 10 0 6 5 10 10 10 6 0 10 -4 10 -10z m-1680 -67 c36 -31 38 -58 8 -90
-29 -31 -66 -30 -78 3 -16 41 -12 92 8 103 25 15 29 14 62 -16z m1756 -60
c-10 -10 -19 5 -10 18 6 11 8 11 12 0 2 -7 1 -15 -2 -18z m-2418 -115 c-6 -18
-28 -21 -28 -4 0 9 7 16 16 16 9 0 14 -5 12 -12z m708 -84 c-29 -21 -56 -18
-56 6 0 28 40 43 60 23 13 -13 13 -16 -4 -29z m1794 -49 c0 -17 -2 -18 -24 -9
-23 9 -20 24 4 24 11 0 20 -7 20 -15z m-1980 -44 c0 -6 -4 -13 -10 -16 -5 -3
-10 -13 -10 -21 0 -8 -10 -28 -21 -43 -23 -31 -18 -53 9 -49 9 2 18 -5 20 -14
2 -13 -1 -16 -12 -12 -9 3 -22 1 -29 -4 -18 -16 -139 -33 -176 -26 -35 7 -39
20 -13 40 16 12 16 15 -6 55 -12 23 -20 45 -17 47 3 3 5 0 5 -7 0 -15 33 -7
125 30 69 28 135 38 135 20z m223 -36 c-7 -19 -33 -20 -33 -1 0 15 20 26 32
19 4 -2 5 -10 1 -18z m1657 0 c0 -8 14 -21 30 -30 43 -22 37 -35 -15 -35 -39
0 -45 3 -45 21 0 11 -5 29 -10 40 -9 16 -7 19 15 19 15 0 25 -6 25 -15z m-60
-52 c0 -19 -3 -24 -10 -17 -6 6 -8 18 -4 27 9 24 14 21 14 -10z m-1770 -50
c-1 -11 -26 -43 -34 -43 -8 0 -8 35 1 43 9 9 33 9 33 0z m210 -39 c0 -8 -4
-12 -10 -9 -5 3 -10 10 -10 16 0 5 5 9 10 9 6 0 10 -7 10 -16z m1800 -44 c0
-22 5 -40 10 -40 6 0 10 18 10 40 0 33 3 40 20 40 17 0 20 -7 20 -40 0 -22 5
-40 10 -40 6 0 10 -9 10 -20 0 -18 -7 -20 -60 -20 -52 0 -60 -2 -60 -19 0 -20
-46 -36 -56 -20 -3 5 0 9 5 9 6 0 11 7 11 15 0 8 9 15 20 15 18 0 19 5 13 60
-6 60 -6 60 21 60 24 0 26 -3 26 -40z m-1780 0 c0 -5 -7 -10 -15 -10 -8 0 -15
5 -15 10 0 6 7 10 15 10 8 0 15 -4 15 -10z m1610 -79 c0 -44 -25 -75 -41 -50
-5 8 -9 31 -9 52 0 33 3 37 25 37 22 0 25 -4 25 -39z m390 35 c0 -3 -4 -8 -10
-11 -5 -3 -10 -1 -10 4 0 6 5 11 10 11 6 0 10 -2 10 -4z m-320 -36 c0 -11 -7
-20 -15 -20 -8 0 -15 9 -15 20 0 11 7 20 15 20 8 0 15 -9 15 -20z m300 -30 c0
-5 -5 -10 -11 -10 -5 0 -7 5 -4 10 3 6 8 10 11 10 2 0 4 -4 4 -10z m40 -105
c0 -8 9 -15 20 -15 29 0 27 -37 -2 -43 -13 -2 3 -5 35 -6 l57 -1 0 40 c0 22 5
40 10 40 6 0 10 -18 10 -40 0 -29 4 -40 15 -40 12 0 15 -16 15 -80 0 -64 -3
-80 -15 -80 -11 0 -15 11 -15 40 0 35 -3 40 -24 40 -15 0 -26 -7 -29 -20 -4
-15 -14 -20 -41 -20 l-36 0 0 -60 0 -60 -45 0 c-52 0 -59 16 -15 31 26 10 30
16 30 50 0 33 -4 40 -25 45 -30 7 -34 34 -5 34 18 0 20 7 20 80 0 73 2 80 20
80 11 0 20 -7 20 -15z m78 3 c-3 -7 -11 -13 -18 -13 -7 0 -15 6 -17 13 -3 7 4
12 17 12 13 0 20 -5 18 -12z m-2251 -58 c17 -1 17 -2 -1 -15 -24 -18 -107 -20
-124 -3 -10 10 -5 16 20 29 29 15 36 15 60 3 15 -8 35 -14 45 -14z m1894 -10
c23 0 28 -6 33 -35 5 -26 3 -40 -8 -51 -19 -18 -36 -11 -30 14 4 17 -31 64
-57 76 -8 3 -3 4 11 1 14 -2 37 -5 51 -5z m119 -60 c0 -11 -7 -20 -15 -20 -18
0 -19 12 -3 28 16 16 18 15 18 -8z m-1655 -11 c0 -7 -8 -15 -17 -17 -18 -3
-25 18 -11 32 10 10 28 1 28 -15z m2185 -129 c0 -22 -4 -40 -10 -40 -5 0 -10
18 -10 40 0 22 5 40 10 40 6 0 10 -18 10 -40z m350 -160 c0 -5 -4 -10 -10 -10
-5 0 -10 5 -10 10 0 6 5 10 10 10 6 0 10 -4 10 -10z m-2682 -20 c-7 -11 -19
-20 -27 -20 -11 0 -10 5 4 20 10 11 22 20 27 20 4 0 3 -9 -4 -20z m2182 -60
c0 -29 -4 -40 -15 -40 -11 0 -15 11 -15 40 0 29 4 40 15 40 11 0 15 -11 15
-40z m-1777 -37 c11 -10 -13 -33 -34 -33 -18 0 -26 20 -12 33 8 9 38 9 46 0z
m-1186 -155 c-3 -7 -5 -2 -5 12 0 14 2 19 5 13 2 -7 2 -19 0 -25z m2978 2 c3
-5 -3 -10 -15 -10 -12 0 -18 5 -15 10 3 6 10 10 15 10 5 0 12 -4 15 -10z m805
-260 c0 -5 -2 -10 -4 -10 -3 0 -8 5 -11 10 -3 6 -1 10 4 10 6 0 11 -4 11 -10z
m-65 -60 c3 -5 1 -10 -4 -10 -6 0 -11 5 -11 10 0 6 2 10 4 10 3 0 8 -4 11 -10z
m-315 -241 c0 -5 -4 -9 -10 -9 -5 0 -10 9 -10 19 0 11 -5 23 -10 26 -6 4 -8
11 -4 16 6 10 34 -33 34 -52z"/>
<path d="M2320 2230 c0 -5 4 -10 9 -10 6 0 13 5 16 10 3 6 -1 10 -9 10 -9 0
-16 -4 -16 -10z"/>
<path d="M2320 2170 c0 -5 7 -10 16 -10 8 0 12 5 9 10 -3 6 -10 10 -16 10 -5
0 -9 -4 -9 -10z"/>
<path d="M2400 2045 c0 -9 5 -15 11 -13 6 2 11 8 11 13 0 5 -5 11 -11 13 -6 2
-11 -4 -11 -13z"/>
<path d="M2387 1763 c-9 -2 -15 -9 -12 -14 9 -14 22 -11 29 6 3 8 4 14 3 14
-1 -1 -10 -3 -20 -6z"/>
<path d="M2543 6783 c-18 -7 -16 -40 2 -47 22 -8 45 4 45 24 0 14 -23 34 -33
29 -1 0 -8 -3 -14 -6z"/>
<path d="M4800 6760 c0 -19 3 -21 12 -12 9 9 9 15 0 24 -9 9 -12 7 -12 -12z"/>
<path d="M4865 6250 c-3 -5 -1 -10 4 -10 6 0 11 5 11 10 0 6 -2 10 -4 10 -3 0
-8 -4 -11 -10z"/>
<path d="M4880 6140 c0 -23 10 -26 28 -8 18 18 15 28 -8 28 -13 0 -20 -7 -20
-20z"/>
<path d="M6640 5935 c0 -8 -4 -15 -10 -15 -15 0 -12 -70 4 -86 8 -8 23 -14 33
-14 11 0 24 -5 31 -12 6 -6 15 -9 19 -5 3 4 -2 14 -13 22 -17 13 -17 14 -1 15
13 0 17 8 17 38 0 20 -7 45 -14 55 -16 21 -66 23 -66 2z"/>
<path d="M7680 5876 c0 -9 7 -16 16 -16 9 0 14 5 12 12 -6 18 -28 21 -28 4z"/>
<path d="M7504 5807 c-7 -20 1 -47 16 -47 12 0 13 30 0 50 -8 12 -10 12 -16
-3z"/>
<path d="M5360 5780 c0 -13 7 -20 20 -20 23 0 26 10 8 28 -18 18 -28 15 -28
-8z"/>
<path d="M3760 5770 c0 -5 7 -10 15 -10 8 0 15 5 15 10 0 6 -7 10 -15 10 -8 0
-15 -4 -15 -10z"/>
<path d="M7660 5745 c0 -7 6 -18 14 -24 12 -10 17 -8 25 8 15 27 14 29 -14 29
-14 0 -25 -6 -25 -13z"/>
<path d="M7750 5749 c0 -5 5 -7 10 -4 6 3 10 8 10 11 0 2 -4 4 -10 4 -5 0 -10
-5 -10 -11z"/>
<path d="M7703 5710 c-26 -21 -31 -42 -8 -34 8 4 15 12 15 19 0 7 6 15 13 18
6 2 10 7 7 10 -3 3 -15 -3 -27 -13z"/>
<path d="M7485 5660 c-7 -23 2 -43 16 -35 12 8 12 42 0 50 -5 3 -12 -4 -16
-15z"/>
<path d="M5840 5189 c0 -5 5 -7 10 -4 6 3 10 8 10 11 0 2 -4 4 -10 4 -5 0 -10
-5 -10 -11z"/>
<path d="M5920 5040 c0 -5 5 -10 11 -10 5 0 7 5 4 10 -3 6 -8 10 -11 10 -2 0
-4 -4 -4 -10z"/>
<path d="M6160 4970 c0 -5 5 -10 11 -10 5 0 7 5 4 10 -3 6 -8 10 -11 10 -2 0
-4 -4 -4 -10z"/>
<path d="M7202 4664 c2 -20 9 -30 23 -32 11 -2 16 0 10 5 -5 4 -10 17 -10 27
0 11 -6 21 -13 24 -10 3 -13 -4 -10 -24z"/>
<path d="M7122 4440 c0 -14 2 -19 5 -12 2 6 2 18 0 25 -3 6 -5 1 -5 -13z"/>
<path d="M6970 4392 c0 -5 7 -17 15 -28 15 -19 15 -19 30 0 22 29 19 36 -15
36 -16 0 -30 -4 -30 -8z"/>
<path d="M7040 4385 c0 -8 7 -15 15 -15 8 0 15 7 15 15 0 8 -7 15 -15 15 -8 0
-15 -7 -15 -15z"/>
<path d="M7015 4310 c3 -5 10 -10 16 -10 5 0 9 5 9 10 0 6 -7 10 -16 10 -8 0
-12 -4 -9 -10z"/>
<path d="M6960 4280 c0 -13 5 -20 13 -17 6 2 12 10 12 17 0 7 -6 15 -12 18 -8
2 -13 -5 -13 -18z"/>
<path d="M6708 4153 c6 -2 12 -20 12 -39 0 -24 5 -34 15 -34 11 0 15 11 15 40
0 37 -2 40 -27 39 -16 0 -22 -3 -15 -6z"/>
<path d="M8917 4132 c-8 -14 6 -132 15 -132 5 0 8 20 7 45 -2 24 0 47 4 51 12
12 8 32 -8 37 -8 4 -16 3 -18 -1z"/>
<path d="M8982 4119 c2 -7 10 -15 17 -17 8 -3 12 1 9 9 -2 7 -10 15 -17 17 -8
3 -12 -1 -9 -9z"/>
<path d="M6800 4069 c0 -5 5 -7 10 -4 6 3 10 8 10 11 0 2 -4 4 -10 4 -5 0 -10
-5 -10 -11z"/>
<path d="M8980 4040 c0 -22 5 -40 10 -40 6 0 10 18 10 40 0 22 -4 40 -10 40
-5 0 -10 -18 -10 -40z"/>
<path d="M8880 3979 c0 -24 23 -21 28 4 2 10 -3 17 -12 17 -10 0 -16 -9 -16
-21z"/>
<path d="M8960 3930 c0 -5 -7 -10 -15 -10 -12 0 -15 -13 -15 -55 0 -49 3 -57
25 -67 14 -6 25 -17 25 -25 0 -7 7 -13 15 -13 17 0 20 16 5 25 -5 3 -10 40
-10 81 0 59 -3 74 -15 74 -8 0 -15 -4 -15 -10z"/>
<path d="M2080 3850 c0 -6 7 -10 15 -10 8 0 15 2 15 4 0 2 -7 6 -15 10 -8 3
-15 1 -15 -4z"/>
<path d="M2021 3724 c0 -11 3 -14 6 -6 3 7 2 16 -1 19 -3 4 -6 -2 -5 -13z"/>
<path d="M9043 3630 c0 -30 2 -43 4 -27 2 15 2 39 0 55 -2 15 -4 2 -4 -28z"/>
<path d="M286 2411 c-7 -11 18 -21 52 -21 l27 1 -25 14 c-29 17 -47 19 -54 6z"/>
<path d="M240 1915 c0 -8 4 -15 9 -15 5 0 14 7 21 15 10 13 9 15 -9 15 -12 0
-21 -6 -21 -15z"/>
<path d="M3193 1000 c0 -25 2 -35 4 -22 2 12 2 32 0 45 -2 12 -4 2 -4 -23z"/>
<path d="M3280 815 c0 -11 11 -15 40 -15 29 0 40 4 40 15 0 11 -11 15 -40 15
-29 0 -40 -4 -40 -15z"/>
<path d="M3440 495 c0 -11 11 -15 39 -15 22 0 41 -5 44 -12 2 -8 8 -9 13 -4 5
5 4 11 -3 13 -7 3 -13 11 -13 19 0 10 -12 14 -40 14 -29 0 -40 -4 -40 -15z"/>
<path d="M3580 410 c0 -5 5 -10 10 -10 6 0 10 5 10 10 0 6 -4 10 -10 10 -5 0
-10 -4 -10 -10z"/>
<path d="M3600 310 c0 -5 9 -10 19 -10 11 0 23 5 26 10 4 6 -5 10 -19 10 -14
0 -26 -4 -26 -10z"/>
<path d="M3657 294 c-8 -8 1 -24 14 -24 5 0 9 7 9 15 0 15 -12 20 -23 9z"/>
<path d="M3840 200 c0 -5 5 -10 10 -10 6 0 10 5 10 10 0 6 -4 10 -10 10 -5 0
-10 -4 -10 -10z"/>
<path d="M3840 130 c0 -16 5 -30 10 -30 6 0 10 3 10 8 0 4 3 17 6 30 5 16 2
22 -10 22 -11 0 -16 -9 -16 -30z"/>
</g>
</svg>
